<?xml version="1.0" encoding="utf-8"?>
<!-- Generator: Adobe Illustrator 14.0.0, SVG Export Plug-In . SVG Version: 6.00 Build 43363)  -->
<!DOCTYPE svg PUBLIC "-//W3C//DTD SVG 1.1//EN" "http://www.w3.org/Graphics/SVG/1.1/DTD/svg11.dtd">
<svg version="1.1" xmlns="http://www.w3.org/2000/svg" xmlns:xlink="http://www.w3.org/1999/xlink" x="0px" y="0px"
	 width="833.28px" height="1632px" viewBox="0 0 833.28 1632" enable-background="new 0 0 833.28 1632" xml:space="preserve">
<g id="Layer_2">
	<path fill-rule="evenodd" clip-rule="evenodd" fill="#FFFFFF" d="M295.44,214.831c1.83,10.877,5.059,20.473,9.721,28.561
		c2.393,4.152,4.795,8.17,7.439,11.76c5.545,7.527,12.074,13.445,20.279,18c7.096,3.939,15.385,7.189,24.841,8.641
		c1.296,0.197,6.374,0.59,8.76,0.479c1.459-0.066,2.97,0.027,4.2-0.119c0.296,0.115,6.092-0.506,8.52-0.961
		c2.201-0.41,4.32-1.012,6.24-1.68c7.562-2.629,14.164-6.932,20.28-11.16c3.126-2.16,6.317-4.184,9.36-6.479
		c11.915-8.996,21.558-20.322,31.319-31.682c9.834-11.439,18.545-23.271,25.32-37.68c5.166-10.984,9.826-21.824,11.88-35.279
		c1.358-8.906,1.028-21.379-0.479-29.641c-0.787-4.305-2.249-7.998-3.841-11.879c-3.085-7.527-6.732-14.248-11.28-20.281
		c-4.641-6.156-9.438-11.771-15.119-16.318c-5.729-4.586-12.545-8.359-20.16-11.4c-7.709-3.08-16.37-4.92-26.521-4.92
		c-9.875,0-19.178,1.607-27.24,4.32c-7.287,2.451-14.116,5.873-20.402,10.291c-21.301,14.969-36.237,38.074-47.758,60.988
		c-4.345,8.643-8.05,17.381-11.279,27c-3.158,9.406-6.166,20.295-5.88,32.16C293.786,203.589,294.527,209.405,295.44,214.831z"/>
	<path fill-rule="evenodd" clip-rule="evenodd" fill="#FFFFFF" d="M57.36,1540.831c1.105,0.996,1.961,1.672,3.24,2.16
		c1.383,0.529,2.758,0.812,4.439,1.08c6.331,1.008,14.047,1.053,20.881,0.84c14.412-0.449,27.127-2.314,39.359-4.199
		c12.986-2.002,25.252-3.877,37.2-6.361c5.935-1.232,11.649-2.986,17.76-3.959c6.159-0.98,12.503-1.912,19.2-2.641
		c6.543-0.709,13.289-1.52,20.16-1.559c6.916-0.041,13.691,1.314,20.4,1.08c1.674-0.059,3.371-0.158,5.039-0.361
		c1.689-0.205,3.377-0.229,5.041-0.359c8.416-0.66,15.283-3.232,20.039-7.201c1-0.832,2.121-1.496,3.24-2.279
		c2.123-1.482,3.72-3.639,4.801-6c2.163-4.73,3.164-12.588,1.68-18.721c-0.688-2.84-1.871-5.396-2.881-8.039
		c-2.037-5.336-4.525-9.979-8.039-13.68c-1.702-1.793-3.855-3.812-4.681-6.24c-0.149-0.439-0.124-0.816-0.239-1.08
		c-0.448-1.014-1.426-1.328-2.041-2.039c-0.898-1.041-1.117-2.467-1.799-3.721c3.145-2.209,6.832-4.436,9.719-6.84
		c0.908-0.756,2.079-1.58,2.041-2.881c-1.121-0.859-1.887-0.207-2.76,0.24c-0.302,0.154-0.799,0.617-0.961,0.24
		c2.545-69.164,11.223-132.104,24.36-190.439c4.399-19.539,9.38-38.57,14.28-57.361c9.823-37.666,21.684-74.305,33-110.279
		c2.838-9.021,6.031-17.916,9-26.76c2.973-8.857,6.312-17.545,9.84-26.041c7.038-16.947,14.322-33.6,21.6-50.039
		c0.896,0.803,1.389,1.496,2.28,2.641c0.526,0.676,1.913,1.955,1.8,2.879c-0.079,0.65-0.996,1.697-1.561,2.76
		c-1.139,2.148-1.93,4.09-2.76,6.121c-0.124,0.303-0.289,0.455-0.359,0.719c-0.066,0.25,0.074,0.539,0,0.84
		c-0.136,0.553-0.488,1.043-0.721,1.561c-12.843,28.648-24.629,58.59-35.399,88.92c-6.163,17.355-11.653,35.455-17.28,53.641
		c-5.596,18.086-11.073,36.721-15.96,55.08c-1.233,4.637-2.565,9.268-3.72,13.92c-5.908,23.799-11.686,47.676-16.92,71.879
		c-0.519,2.398-1.221,4.801-1.68,7.201c-0.49,2.553-0.763,5.105-1.201,7.68c-5.163,30.35-8.88,61.885-10.799,95.641
		c-0.653,11.477-1.309,21.594-1.92,33.6c-0.208,4.074-0.801,10.24-0.48,15c0.078,1.158-0.099,1.367,0.72,1.561
		c0.788,0.186,0.765-0.293,0.96-0.961c0.465-1.592,0.541-4.781,0.6-5.879c0.186-3.459,0.256-6.027,0.36-8.281
		c0.265-5.688,0.651-11.646,0.96-16.439c1.412-21.924,2.982-43.604,5.4-64.08c1.232-10.438,2.611-20.652,4.08-30.721
		c1.482-10.158,2.855-20.123,4.92-29.76c2.042-9.531,4.43-18.855,6.6-28.199c2.189-9.424,4.476-18.766,6.721-28.08
		c2.25-9.342,4.409-18.65,6.959-27.84c5.064-18.246,10.012-36.291,15.48-54c5.509-17.838,10.943-35.467,16.68-52.801
		c1.417-4.281,3.062-8.463,4.561-12.719c9.08-25.799,19.242-50.529,29.52-74.881c1.721-4.076,3.779-7.973,5.28-12.119
		c-0.642-0.566-0.68-1.123-0.36-1.922c0.338-0.84,1.033-1.789,1.561-2.76c0.543-1,0.904-2.115,1.561-2.52
		c12.498,18.943,24.941,38.732,35.759,59.4c3.673,7.016,6.542,14.572,9.721,22.08c3.137,7.41,6.105,15,9,22.68
		c2.885,7.65,5.854,15.352,8.64,23.16c11.159,31.268,20.952,63.715,30.72,96.359c4.903,16.387,9.32,32.977,13.92,49.68
		c9.197,33.4,17.137,67.729,24.121,102.961c1.725,8.701,3.131,18.119,4.08,27.6c0.73,7.309,1.259,14.545,2.52,21.24
		c0.408,2.172,1.204,4.219,1.68,6.359c0.982,4.42,1.582,9.096,2.16,13.682c0.303,2.4,0.596,4.746,0.359,7.078
		c-0.247,2.447-0.357,4.822-0.959,7.08c-0.277,1.043-0.859,1.734-1.32,2.641c-0.477,0.938-0.76,1.941-1.08,2.881
		c-2.061,6.025-3.48,12.391-3.48,20.398c0.001,2.996-0.297,6.305,0.24,8.4c0.152,0.592-0.063,1.812-0.119,2.641
		c-0.27,3.951,0.453,7.07,1.439,10.199c0.691,2.193,0.637,4.523,0.84,7.08c0.214,2.682,0.559,4.592,1.561,6.361
		c0.894,1.578,2.025,3.025,3.359,4.559c1.502,1.729,2.832,2.629,3.6,4.32c0.776,1.707,0.885,3.906,1.44,6.6
		c0.452,2.188,1.241,4.242,1.681,6.24c0.5,2.275,1.024,4.271,1.68,6.24c1.237,3.719,3.869,6.824,6.359,9.6
		c2.496,2.781,5.153,5.547,8.041,7.801c2.99,2.336,6.713,4.008,10.56,5.4c3.909,1.414,8.215,2.479,12.84,3
		c4.883,0.551,9.949,0.416,15.24,0.359c5.438-0.059,10.405-0.322,14.52-1.32c4.03-0.977,7.69-3.09,10.561-5.4
		c1.52-1.223,2.8-2.416,3.72-4.199c2.551-4.939,4.267-12.414,4.32-19.561c0.009-1.268,0.004-2.588-0.24-3.719
		c-0.105-0.488-0.361-0.969-0.48-1.441c-0.143-0.566-0.233-1.133-0.359-1.68c-1.448-6.273-3.982-12.459-6.12-17.76
		c-1.58-3.916-3.03-7.623-4.681-11.16c-0.866-1.855-1.541-3.736-2.52-5.4c-0.942-1.602-2.198-2.969-3.359-4.559
		c-0.836-1.145-1.434-2.578-2.16-3.721c-0.252-0.396-0.66-0.654-0.961-1.08c-1.084-1.539-1.977-3.326-3-4.92
		c-2.072-3.227-4.244-6.404-6.239-9.721c-2.024-3.363-3.973-6.727-5.4-10.439c-1.454-3.781-2.632-7.836-3.84-12.119
		c-2.28-8.088-5.281-16.818-4.08-27.48c1.251-1.648,2.006-3.328,2.64-5.279c0.189-0.58,0.33-1.047,0.36-1.561
		c0.051-0.867-0.188-1.254-0.239-1.801c-0.121-1.281-0.059-2.654-0.121-3.959c-0.244-5.146,0.117-10.873-0.119-15.961
		c-0.245-5.256,0.045-10.676-0.121-15.959c-0.5-15.963-0.52-31.451-1.199-46.92c-0.454-10.33-0.742-20.615-1.32-30.84
		c-1.141-20.197-2.68-40.184-4.32-59.881c-0.823-9.893-1.602-19.736-2.64-29.4c-1.038-9.66-2.497-19.127-3.6-28.561
		c-2.237-19.141-4.64-38.318-6.72-57.479c-4.204-38.719-8.765-76.742-15-113.4c-3.143-18.469-6.32-36.674-9.721-54.6
		c-1.688-8.904-3.483-17.811-5.279-26.76c-3.588-17.871-7.059-35.838-10.32-53.881c-4.903-27.123-10.301-54.244-14.641-81.721
		c-2.198-13.92-4.743-27.846-5.879-42.359c-0.39-4.967-0.621-10.033-0.841-15.24c-0.437-10.33-0.958-20.752-0.96-31.08
		c0-5.234-0.359-10.467-0.359-15.72c0-10.515-0.6-20.907-0.601-31.44c-0.001-5.262-0.239-10.58-0.239-15.84
		c0-10.627,0-21.234,0-31.92c0-10.445,1.334-19.852,3.239-28.799c3.749-17.615,8.399-34.639,13.08-51.24
		c2.341-8.305,4.481-16.615,7.56-24.602c0.121,0,0.144,0.098,0.24,0.121c0.586,0.111,0.535,0.799,0.721,1.199
		c1.461,3.172,2.74,6.65,3.959,9.961c4.322,11.742,8.748,23.279,13.641,34.58c3.23,7.459,6.079,14.869,9.16,22.42
		c1.553,3.805,2.854,7.75,4.32,11.639c1.453,3.857,2.858,7.764,4.319,11.641c5.817,15.438,11.106,31.379,15.84,47.881
		c8.251,28.766,14.715,59.99,20.88,90.719c0.905,4.511,1.499,9.183,2.16,13.801c1.316,9.188,2.85,18.456,4.08,27.84
		c1.225,9.334,2.826,18.688,3.721,28.2c1.797,19.122,3,39.37,2.999,60.841c0,10.33-0.378,21.246,0.12,31.799
		c0.247,5.229,0.585,9.354,2.04,13.92c0.261,0.818,0.545,1.988,1.08,2.881c0.42,0.701,1.253,1.385,2.04,1.92
		c1.284,0.873,4.046,2.432,6.12,1.439c0.786-0.377,2.334-2.131,2.88-2.76c0.739-0.85,1.165-1.857,1.68-2.641
		c0.11-0.166,0.251-0.734,0.601-0.6c1.956,7.734,4.963,14.438,7.68,21.721c1.271,3.406,2.442,7.17,4.2,10.559
		c1.751,3.377,3.531,6.508,6.96,7.801c1.767,0.666,3.937-0.031,5.28-0.721c1.274-0.652,2.626-2.316,3.359-3.359
		c1.92-2.729,3.354-5.801,4.561-9c0.824-2.188,1.627-4.43,2.279-6.721c2.686-9.416,3.362-20.902,3.841-32.158
		c0.485-11.43,0.601-23.518,0.6-35.4c0-9.033-1.111-24.922-1.8-34.32c-1.199-16.375-8.59-75.615-9.24-80.881
		c-0.642-5.192-1.605-10.328-2.52-15.479c-1.856-10.454-8.701-51.206-8.881-52.44c-1.803-12.395-3.589-24.623-5.64-36.84
		c-1.637-9.754-3.013-19.537-4.92-29.039c-1.902-9.482-3.863-18.805-6.12-27.84c-2.222-8.896-4.996-17.617-7.56-26.4
		c-2.551-8.738-5.2-17.457-7.92-26.041c-5.489-17.318-18.337-52.725-18.72-53.76c-3.002-8.096-5.873-16.02-8.761-24
		c-3.277-9.057-6.866-17.949-10.56-26.76c-3.618-8.629-7.416-17.473-11.4-25.92c-2.037-4.32-3.971-8.529-6.48-12.24
		c-7.581-11.211-18.439-18.662-31.319-24.719c-8.49-3.994-18.027-7.195-27.72-9.602c-9.92-2.461-19.951-4.604-31.32-6
		c-10.695-1.312-23.553-2.486-35.76-1.92c-9.256,0.432-17.825,1.002-26.16,2.281c-8.127,1.246-16.024,2.914-23.88,4.559
		c-15.484,3.242-30.624,7.01-45.6,11.281c-14.723,4.197-28.904,9.111-41.281,15.6c-6.264,3.283-12.236,6.754-18,10.439
		c-14.508,9.279-26.99,20.682-37.439,33.721c-2.104,2.623-4.203,5.432-6,8.279c-7.375,11.695-11.714,25.967-15.84,41.041
		c-2.023,7.389-3.859,14.994-5.641,22.799c-1.754,7.686-3.57,15.525-4.92,23.521c-5.437,32.217-10.697,65.139-15.72,98.159
		c-2.513,16.522-4.584,33.284-6.84,50.04c-6.819,50.652-12.882,100.739-18.84,151.92c-1.991,17.098-4.08,34.229-4.08,52.92
		c0,18.434,2.026,35.221,5.76,51.121c1.708,7.273,3.699,14.629,6.24,22.199c1.128,3.361,2.511,6.768,4.44,9.84
		c0.855,1.363,1.88,2.904,3,4.08c1.24,1.305,2.436,2.387,4.68,2.52c0.406,0.025,0.539,0.262,0.84,0.121
		c0.285-0.135,0.931-1.316,1.08-1.561c0.918-1.504,1.377-3.842,1.92-6c3.842-15.252,5.479-32.148,9-47.041
		c1.541,0.635,2.937,1.557,4.439,1.92c1.504,0.365,1.836,0.053,2.761-0.6c1.515-1.064,2.108-2.287,3.12-4.68
		c0.662-1.566,1.511-3.168,2.039-4.439c1.408-3.385,2.259-6.58,3.121-9.961c1.82-7.141,3.369-14.227,4.56-21.479
		c2.532-15.424,3.371-31.902,4.44-47.762c0.128-1.908,0.11-3.836,0.239-5.76c2.588-38.584,5.714-77.201,10.681-113.279
		c1.058-7.688,2.032-15.361,3.359-22.801c2.643-14.811,5.891-29.047,9.6-42.6c6.546-23.914,14.744-46.367,22.801-68.52
		c1.164-3.203,2.366-6.389,3.72-9.359c5.926,26.795,11.257,55.123,13.08,86.159c0.913,15.556,1.321,31.815,1.319,48.239
		c0,16.357,0.111,32.924-0.6,49.08c-0.35,7.97-0.845,15.523-1.8,22.92c-2.844,22.031-7.469,42.144-11.64,62.881
		c-5.557,27.625-10.921,55.152-15,84.359c-0.211,0.363,0.195,0.34,0.24,0.6c0.064,0.379-0.092,0.701-0.121,1.08
		c-0.156,2.02-0.67,4.023-0.959,6c-2.759,18.844-5.681,37.635-8.28,56.521c-2.992,21.736-5.55,43.561-9,65.16
		c-3.396,21.262-6.712,42.635-10.32,63.84c-7.235,42.531-14.055,84.797-20.04,128.279c-8.977,65.213-18.424,129.875-28.08,194.4
		c-0.05,0.746-0.467,4.982-1.08,6.959c-0.07,0.229-0.314,0.311-0.359,0.48c-0.1,0.377,0.068,0.914-0.12,1.08
		c0.743,1.238,1.161,2.129,1.68,3.48c0.337,0.877,0.661,1.824,1.08,2.76c1.112,2.484,2.911,4.818,4.681,6.6
		c1.359,1.369,2.861,2.105,4.56,3.121c0.993,0.594,1.8,1.045,2.04,1.799c0.107,0.338,0.065,0.807,0.119,1.201
		c0.316,2.283,0.865,5.303,0.841,7.559c-0.01,0.9-0.28,1.752-0.841,2.4c-0.324,0.377-0.99,0.924-1.439,0.84
		c-0.602-2.732,1.178-4.811,0.96-7.92c-0.336-0.062-0.624-0.176-0.96-0.24c-1.006-0.51-1.744,0.053-2.4,0.48
		c-2.211,1.445-4.512,4.525-6.119,6.359c0.133,1.143-0.877,1.475-1.561,1.92c-2.211,1.443-4.654,2.605-6.96,3.721
		c-0.204,0.32-0.774-0.477-0.96,0.119c-0.14,0.656-0.937,0.963-1.439,1.201c-9.248,4.361-18.785,8.246-28.681,11.879
		c-5.153,1.895-10.412,3.986-15.6,6c-5.263,2.045-10.533,4.02-15.479,6.24c-4.967,2.23-9.846,4.521-14.761,6.84
		c-7.249,3.42-14.608,7.461-22.319,10.201c-6.684,2.373-12.498,5.508-16.92,10.08c-0.925,0.955-2.161,2.404-2.281,3.24
		C53.391,1536.458,55.516,1539.171,57.36,1540.831z"/>
</g>
<g id="visualization_sketches_xA0_Image_1_">
	<g>
		<path fill-rule="evenodd" clip-rule="evenodd" d="M339.48,236.52c0.245-0.275,0.997-0.043,1.44-0.119
			C340.675,236.676,339.923,236.443,339.48,236.52z"/>
		<path fill-rule="evenodd" clip-rule="evenodd" d="M246.36,1468.2c0.08,0,0.16,0,0.24,0c1.449,0.411,2.316,1.577,3.12,2.76
			c2.331,3.433,4.462,6.821,6.84,10.56c1.484,2.334,3.021,4.617,4.44,7.2c1.62,2.948,3.968,7.534,2.16,11.64
			c-1.654,3.756-5.923,6.116-10.2,7.92c-3.183,1.344-6.896,2.054-10.92,2.041c-4.014-0.014-8.301-0.241-12.72-0.24
			c-4.229,0.001-8.598,0.098-12.84,0.12c-8.609,0.046-16.41,0.906-23.64,2.399c-21.458,4.433-40.159,11.602-60.36,17.521
			c-13.453,3.941-27.643,7.004-42.6,9.239c7.165-1.703,14.568-2.912,21.72-4.56c21.255-4.896,40.404-11.938,60.84-17.88
			c10.115-2.94,20.254-6.1,32.28-7.08c11.755-0.959,25.872-0.648,38.52-0.84c2.151-0.032,4.131-0.193,5.88-0.721
			c1.609-0.484,3.012-1.189,4.56-1.92c3.124-1.473,6.047-2.887,7.56-5.52c0.878-1.527,1.146-3.895,0.48-6.359
			c-0.63-2.336-2.152-4.47-3.48-6.601c-3.196-5.126-6.639-10.036-10.08-15c-1.016-1.465-1.803-2.495-1.92-4.319
			C246.23,1468.39,246.22,1468.221,246.36,1468.2z"/>
		<path fill-rule="evenodd" clip-rule="evenodd" d="M357.72,284.16c-9.456-1.451-17.745-4.701-24.84-8.641
			c-8.206-4.555-14.735-10.472-20.28-18c-2.644-3.59-5.046-7.606-7.44-11.76c-4.661-8.087-7.89-17.684-9.72-28.56
			c-0.913-5.426-1.655-11.242-1.8-17.28c-0.286-11.865,2.722-22.753,5.88-32.16c3.229-9.619,6.935-18.357,11.28-27
			c11.52-22.913,26.457-46.019,47.757-60.987c6.286-4.418,13.115-7.841,20.403-10.292c8.062-2.712,17.365-4.32,27.24-4.32
			c10.15,0,18.811,1.841,26.52,4.92c7.615,3.042,14.431,6.815,20.16,11.4C458.562,86.027,463.359,91.643,468,97.8
			c4.548,6.033,8.195,12.754,11.28,20.28c1.592,3.882,3.054,7.574,3.841,11.88c1.508,8.261,1.838,20.734,0.479,29.64
			c-2.054,13.455-6.714,24.295-11.88,35.28c-6.775,14.407-15.486,26.239-25.32,37.68c-9.762,11.358-19.404,22.686-31.32,31.681
			c-3.042,2.296-6.234,4.318-9.36,6.479c-6.116,4.229-12.719,8.53-20.28,11.16c-1.92,0.668-4.04,1.269-6.24,1.68
			c-2.428,0.454-8.224,1.075-8.52,0.96c-1.23,0.147-2.741,0.053-4.2,0.12C364.095,284.751,359.016,284.358,357.72,284.16z
			 M428.16,245.04c-13.712,12.605-29.135,23.676-45.24,33.6c5.844-1.795,11.032-4.785,15.96-7.92c2.431-1.546,4.702-3.327,7.08-4.92
			c11.991-8.029,22.153-17.798,31.32-28.68c1.827-2.169,3.54-4.438,5.4-6.601c9.224-10.717,17.988-22.187,24.72-35.279
			c5.416-10.536,14.99-28.49,13.24-55.99c-0.238-3.75-1.412-8.836-2.25-12c-0.805-3.041-2.231-6.49-3.43-9.29
			c-2.469-5.766-5.146-11.011-8.16-15.84c-2.998-4.801-6.383-9.372-10.801-13.2c-8.629-7.477-18.518-13.474-30.84-17.16
			c-27.283-8.162-56.667,1.986-76.613,21.311c-5.756,5.576-11.42,11.851-16.076,18.384c-6.407,8.99-12.523,18.636-17.578,28.458
			c-3.249,6.313-6.418,12.714-9.013,19.328c-0.439,1.119-0.979,2.346-1.08,3.24c-0.129,1.146,0.131,2.6,0.24,3.96
			c0.757,9.401,2.127,18.219,4.44,25.68c1.357,4.379,2.924,8.649,4.92,12.24c1.826,3.285,4.093,6.154,6.48,8.64
			c0.316,0.328,0.9,0.513,0.84,1.08c-6.347-5.028-9.847-12.678-12.6-21.24c-2.766-8.601-4.101-18.52-5.04-28.8
			c-2.042,5.95-4.076,12.28-5.4,18.96c-0.199,1.002-0.627,2.14-0.6,3c0.015,0.486,0.302,1.237,0.48,1.92
			c1.215,4.657,2.894,8.987,4.68,12.6c2.196,4.44,4.831,8.546,7.8,12c1.55,1.804,3.134,3.615,4.92,4.921
			c5.681,4.149,13.001,7.159,21.24,8.399c-2.621-0.021-4.591-0.489-6.6-1.08c-3.599-1.058-6.984-2.572-9.96-4.08
			c-4.399-2.228-7.446-5.029-10.32-8.52c-5.738-6.97-10.015-15.429-12.48-25.08c-0.417,3.457-0.96,6.651-0.96,10.439
			c0,1.251-0.233,2.663,0,3.841c0.106,0.533,0.63,1.219,0.96,1.92c0.907,1.927,1.908,4.196,2.88,5.88c1.5,2.6,3.477,4.64,5.16,6.6
			c3.77,4.393,8.198,7.558,13.44,10.08c5.182,2.494,11.571,4.436,18.12,5.4c1.879,0.276,3.635,0.445,5.4,0.479
			c3.663,0.073,7.271-0.659,10.56-1.2c1.624-0.267,3.24-0.725,4.92-0.72c-6.724,1.319-13.442,2.842-20.4,1.92
			c-6.484-0.858-12.929-2.939-18-5.16c-10.729-4.696-18.205-13.111-22.8-23.52c0.281,4.864,0.839,9.378,1.56,13.56
			c0.244,1.416,0.325,3.062,0.84,4.2c0.525,1.162,2.182,2.422,3.36,3.601c3.648,3.647,7.655,6.425,12.48,8.399
			c3.358,1.375,6.934,2.551,10.8,3.12c4.139,0.609,8.388,0.787,12.96,0.72c-14.014,0.856-24.812-2.401-32.4-8.279
			c-2.213-1.714-4.387-3.748-6.24-5.641c-0.235-0.239-0.563-1.013-0.72-0.6c1.046,4.354,2.31,8.49,3.72,12.479
			c5.162,3.115,11.06,6.353,19.08,6.721c8.077,0.37,16.758-0.002,24-1.681c14.015-3.248,24.777-10.211,36.48-15.359
			c-5.375,2.98-11.058,5.883-16.92,8.64c-5.847,2.75-11.821,5.516-18.6,7.08c-3.438,0.794-7.249,1.479-11.213,1.75
			c-6.113,0.417-12.838,0.61-18.307-0.31c-5.321-0.896-9.804-3.309-13.92-5.4c1.758,4.922,4.314,9.046,6.72,13.32
			c3.989,1.345,8.219,2.498,12.72,3.12c4.926,0.68,9.805,0.178,14.52-0.601c9.075-1.498,17.956-3.576,24.96-6.84
			c6.985-3.255,13.747-7.498,20.4-11.4c10.368-6.079,19.346-12.34,27.84-19.8c2.817-2.474,5.781-4.94,8.4-7.56
			c10.645-10.645,21.318-21.236,29.4-34.2c3.812-6.116,7.373-12.732,10.799-18.96c0.208-0.377,0.209-1.148,0.841-1.2
			c-7.038,13.935-14.836,27.118-24.96,38.4c-7.453,8.305-15.53,16.336-23.88,23.64c-8.605,7.527-17.624,13.722-27.84,19.8
			c-6.619,3.938-13.376,7.982-20.4,11.28c-3.517,1.651-7.283,3.253-11.52,4.32c-4.16,1.048-8.565,1.925-13.08,2.76
			c-4.545,0.841-9.56,1.278-14.52,0.84c-4.684-0.414-8.991-1.654-13.08-2.88c1.44,2.534,2.997,4.947,4.8,7.32
			c0.547,0.721,1.295,1.97,1.92,2.159c1.265,0.384,3.561-0.051,5.4-0.119c5.511-0.207,11.049-0.354,15.48-1.2
			c2.906-0.556,5.732-1.598,8.52-2.521c8.467-2.802,17.097-5.339,24.72-8.64c5.173-2.24,10.082-4.731,14.76-7.44
			c4.561-2.64,8.822-5.957,13.08-9.12c4.298-3.191,8.545-6.396,12.48-9.72c6.119-5.168,11.662-10.67,16.8-16.56
			c1.742-1.997,3.362-4.073,5.28-5.88c-6.584,8.097-13.76,15.754-21.84,22.56c-3.969,3.343-8.148,6.557-12.48,9.72
			c-4.303,3.144-8.504,6.558-13.08,9.24c-9.482,5.561-19.577,9.72-30.96,13.44c-5.335,1.743-10.89,4.066-16.92,5.279
			c-6.41,1.29-13.355,1.218-20.88,1.44c0.6,1.238,1.865,2.345,3.12,3.6c0.851,0.852,2.573,2.981,3.72,3.24
			c0.934,0.211,2.551-0.016,3.96-0.12c1.266-0.094,2.563-0.32,3.6-0.479c7.208-1.109,14.002-2.617,20.04-4.44
			c4.243-1.281,8.072-2.886,11.88-4.439c3.909-1.595,7.735-3.197,11.4-5.04c10.782-5.421,20.694-12.196,30.12-18.96
			c3.266-2.344,6.508-4.638,9.24-7.2c5.662-5.311,10.991-10.804,16.32-16.44c5.305-5.611,10.041-11.823,14.52-18.24
			c4.416-6.326,8.911-13.043,12.359-20.399c3.015-6.429,5.649-13.536,8.4-20.16c0.365-0.88,0.743-1.864,1.44-2.52
			c-4.688,12.047-8.903,23.67-15.36,33.6c-6.482,9.968-13.143,19.624-21,28.08c-5.266,5.667-10.685,11.184-16.32,16.439
			c-2.761,2.576-6.045,4.77-9.24,7.08c-15.945,11.537-32.571,22.046-53.28,28.561c-4.138,1.302-8.588,2.255-13.08,3.24
			c-4.62,1.013-9.456,1.87-14.52,1.92c2.672,2.751,6.718,5.104,10.44,6.96c19.255-2.582,34.629-10.253,48.84-18.48
			c3.589-2.078,7.002-4.192,10.32-6.479c3.308-2.281,6.343-4.786,9.48-7.32c6.25-5.049,12.456-10.176,18-15.72
			c5.563-5.564,10.886-11.477,15.959-17.641c5.076-6.165,10.002-12.451,14.521-19.199c2.249-3.358,4.208-6.989,6.24-10.561
			c2.099-3.688,3.88-7.382,5.521-11.4c3.072-7.531,5.114-15.837,7.319-24.239c0.139-0.529,0.161-1.17,0.601-1.561
			c-1.903,9.403-4.225,18.001-7.44,26.04c-3.161,7.902-7.278,15.018-11.64,21.84c-4.313,6.746-9.211,13.117-14.28,19.2
			c-6.403,7.684-12.956,15.212-20.16,21.72c-4.433,4.005-8.927,7.928-13.56,11.641c-6.258,5.015-12.648,9.885-19.68,13.92
			c-14.174,8.135-29.311,16.008-48.24,18.84c0.616,0.684,1.667,0.843,2.52,1.2c1.806,0.756,3.474,1.394,5.4,2.04
			c1.019,0.342,2.146,0.868,3,0.84c0.714-0.023,1.804-0.629,3-1.08c7.129-2.688,14.444-5.629,20.64-8.52
			c3.732-1.742,7.217-3.887,10.68-5.881c3.604-2.074,7.1-4.105,10.32-6.359c3.225-2.258,6.236-4.813,9.36-7.2
			c3.15-2.407,6.182-4.966,9.24-7.44c3.115-2.52,6.146-5.028,9-7.68c1.447-1.346,2.968-2.564,4.319-3.96
			c1.383-1.428,2.607-2.967,3.96-4.439c2.68-2.919,5.374-5.712,8.04-8.521c2.736-2.883,5.272-5.807,7.8-8.88
			c4.99-6.068,9.219-12.784,13.32-19.92c4.015-6.985,7.81-14.302,10.8-22.44c2.668-7.261,4.364-15.06,5.521-23.64
			c0.172-1.279,0.133-2.536,0.6-3.6c-1.173,20.275-8.328,35.994-16.32,49.92c-4.107,7.157-8.344,13.836-13.199,19.92
			c-4.902,6.141-10.465,11.545-15.84,17.399c-2.648,2.884-5.266,5.767-8.16,8.4c-2.877,2.615-5.923,5.029-9,7.56
			c-3.009,2.475-5.984,5.041-9.12,7.44c-3.148,2.409-6.14,5.072-9.36,7.32c-13.196,9.211-28.235,16.163-44.28,22.08
			c2.806,0.634,5.729,1.15,8.76,1.56c7.279-3.141,14.551-5.84,21.12-9.72c19.372-11.443,36.591-25.298,51.599-40.92
			c10.022-10.432,19.786-21.277,27.601-34.08c7.802-12.781,14.51-27.003,17.761-44.04c0.257-0.436,0.103-0.489,0.119-0.84
			c0.483-2.128,0.845-9.209,0.12-12c0.991,1.033,1.08,2.96,1.08,4.8c0,2.117-0.276,4.441-0.479,6.24
			c-0.06,0.523-0.412,2.462-0.48,2.76c-0.125,0.541-0.152,1.219-0.24,1.68c-1.431,7.561-3.849,14.14-6.359,20.521
			c-2.877,7.308-6.487,14.076-10.32,20.52c-3.837,6.45-8.086,12.537-12.721,18.12c-4.683,5.643-9.727,10.849-14.639,16.2
			c-4.842,5.272-10.219,10.188-15.721,15c-5.478,4.792-11.171,9.476-17.16,13.68c-5.991,4.206-12.146,8.455-18.6,12.24
			c-6.599,3.869-13.543,7.057-20.88,9.96c1.134-0.264,2.48,0.366,3.72,0.12c0.562-0.111,1.53-0.838,2.4-1.32
			c2.516-1.396,5.093-2.858,7.32-4.08c9.977-5.475,19.681-10.986,28.44-17.16c2.947-2.077,5.702-4.426,8.4-6.72
			c2.78-2.364,5.604-4.613,8.28-6.96c5.438-4.77,10.293-10.066,15.24-15.12c5.096-5.205,10.092-10.263,14.64-15.72
			c4.62-5.545,8.284-11.746,12.12-18.24c3.756-6.359,7.201-13.084,10.08-20.28c2.678-6.691,5.326-13.934,7.2-21.359
			c0.12-0.478-0.071-1.153,0.479-1.44c-1.604,8.149-4.473,15.625-7.32,22.8c-2.861,7.211-6.107,14.046-9.84,20.4
			c-3.788,6.45-7.49,12.619-12,18.12c-4.506,5.495-9.421,10.621-14.52,15.72c-5.018,5.019-9.887,10.196-15.12,15
			c-5.229,4.8-10.722,9.445-16.56,13.68c-11.708,8.494-24.562,15.335-37.8,22.561c0.963-0.13,2.192,0.157,3.24-0.12
			c0.628-0.167,1.479-0.812,2.28-1.2c2.419-1.171,4.956-2.49,7.2-3.6c6.772-3.35,12.332-6.756,17.88-10.92
			c2.776-2.085,5.548-4.113,8.16-6.24c5.415-4.41,10.734-8.6,15.72-13.08c5.084-4.568,9.951-9.231,14.76-14.04
			c4.811-4.81,9.661-9.607,13.92-14.88c8.531-10.561,16.402-22.368,21.721-35.88c2.028-5.155,4.064-10.499,5.879-15.72
			c0.613-1.761,0.955-3.636,1.921-5.28c-2.349,7.409-4.829,14.408-7.44,21.12c-5.248,13.489-13.213,25.271-21.6,35.64
			c-4.283,5.296-8.99,10.07-13.801,14.88c-4.758,4.758-9.523,9.503-14.52,14.04c-2.48,2.253-5.216,4.33-7.8,6.48
			c-7.818,6.507-15.672,13.113-24.36,18.6c-5.931,3.745-12.263,6.741-18.72,9.96c1.354-0.312,3.208-0.046,4.68-0.479
			c0.584-0.173,1.37-0.764,2.16-1.2c5.128-2.835,10.423-5.759,15-8.76c5.5-3.607,10.697-7.671,15.6-11.521
			c10.391-8.159,20.1-16.38,29.04-25.32c4.463-4.462,8.555-9.511,12.601-14.52c4.054-5.019,7.786-10.399,11.28-15.84
			c6.693-10.423,11.846-22.066,16.32-34.561c0.297-0.83,0.518-1.826,1.08-2.399c-4.4,13.595-9.899,25.782-16.921,36.84
			c-6.981,10.995-14.977,21.001-23.64,30.24c-4.299,4.584-9.115,8.768-13.92,12.96c-4.793,4.181-9.667,8.286-14.64,12.239
			c-5.009,3.981-9.993,7.976-15.36,11.521c-5.476,3.616-11.157,6.841-16.92,10.08c3.43-0.441,5.475-1.825,8.04-3.36
			c6.267-3.75,12.345-7.941,18-12c10.256-7.36,19.942-15.219,28.919-23.64c3.912-3.668,7.752-7.448,11.041-11.521
			c1.085-1.344,1.919-2.925,3.24-4.08C441.084,233.146,434.733,238.997,428.16,245.04z"/>
		<path fill-rule="evenodd" clip-rule="evenodd" d="M625.68,916.439c-0.35-0.134-0.49,0.434-0.601,0.601
			c-0.515,0.782-0.94,1.79-1.68,2.64c-0.546,0.629-2.094,2.384-2.88,2.76c-2.074,0.993-4.836-0.566-6.12-1.439
			c-0.787-0.535-1.62-1.219-2.04-1.92c-0.535-0.893-0.819-2.062-1.08-2.88c-1.455-4.567-1.793-8.692-2.04-13.921
			c-0.498-10.552-0.12-21.468-0.12-31.799c0.001-21.471-1.202-41.719-2.999-60.84c-0.895-9.513-2.496-18.866-3.721-28.2
			c-1.23-9.384-2.764-18.652-4.08-27.84c-0.661-4.618-1.255-9.29-2.16-13.8c-6.165-30.729-12.629-61.954-20.88-90.72
			c-4.733-16.502-10.022-32.443-15.84-47.88c-1.461-3.878-2.866-7.783-4.319-11.641c-1.467-3.89-2.768-7.834-4.32-11.64
			c-3.081-7.55-5.93-14.96-9.16-22.42c-4.893-11.3-9.318-22.838-13.641-34.58c-1.219-3.311-2.498-6.788-3.959-9.96
			c-0.186-0.4-0.135-1.088-0.721-1.2c-0.097-0.022-0.119-0.12-0.24-0.12c-3.078,7.985-5.219,16.296-7.56,24.601
			c-4.681,16.602-9.331,33.625-13.08,51.24c-1.905,8.948-3.239,18.354-3.239,28.8c0,10.685,0,21.292,0,31.92
			c0,5.26,0.238,10.577,0.239,15.84c0.001,10.532,0.601,20.926,0.601,31.44c0,5.252,0.359,10.485,0.359,15.72
			c0.002,10.328,0.523,20.749,0.96,31.08c0.22,5.207,0.451,10.274,0.841,15.24c1.136,14.514,3.681,28.44,5.879,42.36
			c4.34,27.476,9.737,54.597,14.641,81.72c3.262,18.044,6.732,36.011,10.32,53.881c1.796,8.949,3.591,17.855,5.279,26.76
			c3.4,17.926,6.578,36.131,9.721,54.6c6.235,36.658,10.796,74.682,15,113.4c2.08,19.16,4.482,38.338,6.72,57.479
			c1.103,9.434,2.562,18.899,3.6,28.561c1.038,9.664,1.816,19.507,2.64,29.399c1.641,19.697,3.18,39.684,4.32,59.881
			c0.578,10.226,0.866,20.51,1.32,30.84c0.68,15.47,0.699,30.957,1.199,46.92c0.166,5.284-0.124,10.703,0.121,15.96
			c0.236,5.087-0.125,10.813,0.119,15.96c0.062,1.306,0,2.678,0.121,3.96c0.051,0.546,0.29,0.934,0.239,1.8
			c-0.03,0.514-0.171,0.98-0.36,1.561c-0.634,1.951-1.389,3.632-2.64,5.279c-1.201,10.662,1.8,19.393,4.08,27.48
			c1.208,4.283,2.386,8.339,3.84,12.119c1.428,3.713,3.376,7.076,5.4,10.44c1.995,3.316,4.167,6.493,6.239,9.72
			c1.023,1.594,1.916,3.382,3,4.92c0.301,0.426,0.709,0.685,0.961,1.08c0.727,1.143,1.324,2.576,2.16,3.721
			c1.161,1.59,2.417,2.958,3.359,4.56c0.979,1.664,1.653,3.544,2.52,5.399c1.65,3.537,3.101,7.244,4.681,11.16
			c2.138,5.301,4.672,11.486,6.12,17.761c0.126,0.547,0.217,1.112,0.359,1.68c0.119,0.472,0.375,0.953,0.48,1.44
			c0.244,1.131,0.249,2.452,0.24,3.72c-0.054,7.146-1.77,14.62-4.32,19.56c-0.92,1.783-2.2,2.977-3.72,4.2
			c-2.87,2.31-6.53,4.423-10.561,5.4c-4.114,0.998-9.081,1.261-14.52,1.319c-5.291,0.058-10.357,0.191-15.24-0.359
			c-4.625-0.521-8.931-1.586-12.84-3c-3.847-1.393-7.569-3.064-10.56-5.4c-2.888-2.254-5.545-5.02-8.041-7.8
			c-2.49-2.775-5.122-5.881-6.359-9.601c-0.655-1.969-1.18-3.965-1.68-6.239c-0.439-1.999-1.229-4.054-1.681-6.24
			c-0.556-2.694-0.664-4.894-1.44-6.601c-0.768-1.691-2.098-2.592-3.6-4.319c-1.334-1.534-2.466-2.981-3.359-4.56
			c-1.002-1.77-1.347-3.679-1.561-6.36c-0.203-2.558-0.148-4.888-0.84-7.08c-0.986-3.13-1.709-6.248-1.439-10.2
			c0.056-0.828,0.271-2.048,0.119-2.64c-0.537-2.096-0.239-5.405-0.24-8.4c0-8.009,1.42-14.374,3.48-20.399
			c0.32-0.939,0.604-1.943,1.08-2.881c0.461-0.906,1.043-1.598,1.32-2.64c0.602-2.259,0.712-4.634,0.959-7.08
			c0.236-2.333-0.057-4.678-0.359-7.079c-0.578-4.586-1.178-9.261-2.16-13.681c-0.476-2.142-1.271-4.188-1.68-6.36
			c-1.261-6.695-1.789-13.932-2.52-21.24c-0.949-9.48-2.355-18.897-4.08-27.6c-6.984-35.231-14.924-69.561-24.121-102.96
			c-4.6-16.704-9.017-33.294-13.92-49.68c-9.768-32.645-19.561-65.092-30.72-96.36c-2.786-7.809-5.755-15.509-8.64-23.16
			c-2.895-7.679-5.863-15.27-9-22.68c-3.179-7.507-6.048-15.064-9.721-22.08c-10.818-20.668-23.261-40.456-35.759-59.4
			c-0.656,0.404-1.017,1.52-1.56,2.521c-0.527,0.97-1.223,1.919-1.56,2.76c-0.32,0.798-0.282,1.354,0.36,1.921
			c-1.501,4.146-3.56,8.043-5.28,12.119c-10.278,24.352-20.44,49.083-29.52,74.881c-1.498,4.256-3.144,8.438-4.56,12.719
			c-5.736,17.335-11.171,34.963-16.68,52.801c-5.469,17.709-10.417,35.755-15.48,54c-2.55,9.189-4.709,18.499-6.96,27.84
			c-2.245,9.314-4.531,18.656-6.72,28.08c-2.171,9.345-4.558,18.668-6.6,28.2c-2.064,9.636-3.438,19.601-4.92,29.76
			c-1.469,10.068-2.848,20.283-4.08,30.72c-2.418,20.477-3.989,42.156-5.4,64.08c-0.309,4.793-0.696,10.753-0.96,16.439
			c-0.104,2.254-0.174,4.822-0.36,8.281c-0.059,1.098-0.135,4.288-0.6,5.879c-0.195,0.669-0.172,1.146-0.96,0.961
			c-0.818-0.193-0.642-0.401-0.72-1.561c-0.321-4.759,0.272-10.925,0.48-15c0.611-12.006,1.267-22.122,1.92-33.6
			c1.919-33.755,5.636-65.29,10.8-95.641c0.438-2.573,0.711-5.126,1.2-7.68c0.459-2.4,1.162-4.803,1.68-7.2
			c5.234-24.204,11.012-48.08,16.92-71.88c1.155-4.652,2.486-9.283,3.72-13.92c4.887-18.359,10.364-36.994,15.96-55.08
			c5.627-18.186,11.117-36.285,17.28-53.64c10.771-30.331,22.557-60.272,35.4-88.921c0.232-0.518,0.584-1.008,0.72-1.56
			c0.074-0.302-0.067-0.591,0-0.84c0.071-0.264,0.235-0.416,0.36-0.72c0.83-2.031,1.621-3.973,2.76-6.12
			c0.564-1.063,1.481-2.11,1.56-2.761c0.113-0.923-1.273-2.203-1.8-2.879c-0.892-1.145-1.383-1.838-2.28-2.641
			c-7.277,16.439-14.562,33.092-21.6,50.04c-3.528,8.495-6.867,17.183-9.84,26.04c-2.969,8.844-6.162,17.739-9,26.76
			c-11.316,35.975-23.176,72.614-33,110.28c-4.9,18.79-9.88,37.822-14.28,57.36c-13.138,58.337-21.815,121.275-24.36,190.439
			c0.161,0.377,0.659-0.086,0.96-0.24c0.873-0.447,1.639-1.1,2.76-0.239c0.039,1.3-1.133,2.124-2.04,2.88
			c-2.887,2.405-6.575,4.631-9.72,6.84c0.682,1.254,0.901,2.68,1.8,3.721c0.615,0.711,1.592,1.025,2.04,2.039
			c0.116,0.264,0.09,0.641,0.24,1.08c0.825,2.428,2.979,4.447,4.68,6.24c3.515,3.701,6.002,8.344,8.04,13.68
			c1.009,2.643,2.192,5.199,2.88,8.04c1.484,6.132,0.484,13.989-1.68,18.72c-1.081,2.362-2.678,4.518-4.8,6
			c-1.12,0.783-2.24,1.447-3.24,2.28c-4.756,3.968-11.623,6.54-20.04,7.2c-1.664,0.131-3.351,0.154-5.04,0.359
			c-1.669,0.203-3.366,0.303-5.04,0.361c-6.708,0.234-13.484-1.121-20.4-1.08c-6.871,0.039-13.618,0.85-20.16,1.56
			c-6.698,0.728-13.042,1.659-19.2,2.64c-6.11,0.974-11.825,2.727-17.76,3.96c-11.948,2.484-24.214,4.359-37.2,6.36
			c-12.232,1.885-24.947,3.751-39.36,4.199c-6.834,0.214-14.549,0.168-20.88-0.84c-1.682-0.268-3.057-0.55-4.44-1.08
			c-1.279-0.488-2.134-1.164-3.24-2.159c-1.844-1.66-3.969-4.373-3.48-7.8c0.12-0.836,1.356-2.285,2.28-3.24
			c4.422-4.572,10.237-7.706,16.92-10.08c7.711-2.74,15.071-6.781,22.32-10.2c4.915-2.318,9.794-4.61,14.76-6.84
			c4.947-2.221,10.218-4.196,15.48-6.24c5.188-2.015,10.446-4.106,15.6-6c9.895-3.634,19.433-7.518,28.68-11.88
			c0.503-0.237,1.3-0.545,1.44-1.2c0.185-0.597,0.756,0.2,0.96-0.12c2.306-1.115,4.749-2.276,6.96-3.72
			c0.683-0.445,1.693-0.777,1.56-1.92c1.608-1.834,3.908-4.915,6.12-6.36c0.656-0.428,1.394-0.99,2.4-0.479
			c0.336,0.063,0.624,0.177,0.96,0.239c0.217,3.11-1.562,5.188-0.96,7.92c0.45,0.085,1.116-0.463,1.44-0.84
			c0.56-0.648,0.831-1.499,0.84-2.399c0.024-2.256-0.524-5.276-0.84-7.56c-0.054-0.394-0.012-0.862-0.12-1.201
			c-0.241-0.754-1.046-1.205-2.04-1.799c-1.698-1.016-3.201-1.752-4.56-3.121c-1.769-1.78-3.568-4.114-4.68-6.6
			c-0.418-0.936-0.743-1.883-1.08-2.76c-0.519-1.351-0.936-2.241-1.68-3.48c0.188-0.165,0.021-0.702,0.12-1.08
			c0.045-0.17,0.29-0.252,0.36-0.479c0.613-1.977,1.03-6.214,1.08-6.96c9.655-64.525,19.103-129.188,28.08-194.4
			c5.985-43.481,12.804-85.747,20.04-128.279c3.608-21.205,6.924-42.577,10.32-63.84c3.45-21.599,6.008-43.424,9-65.16
			c2.6-18.887,5.521-37.677,8.28-56.521c0.29-1.977,0.803-3.98,0.96-6c0.029-0.379,0.185-0.702,0.12-1.08
			c-0.044-0.261-0.451-0.237-0.24-0.6c4.08-29.207,9.444-56.735,15-84.36c4.171-20.737,8.796-40.849,11.64-62.88
			c0.955-7.397,1.45-14.951,1.8-22.92c0.71-16.156,0.599-32.723,0.6-49.08c0.001-16.425-0.406-32.684-1.32-48.24
			c-1.823-31.037-7.154-59.364-13.08-86.16c-1.354,2.972-2.555,6.157-3.72,9.359c-8.057,22.152-16.255,44.606-22.8,68.52
			c-3.709,13.553-6.957,27.789-9.6,42.6c-1.327,7.439-2.302,15.113-3.36,22.8c-4.966,36.078-8.092,74.696-10.68,113.28
			c-0.129,1.923-0.111,3.851-0.24,5.76c-1.069,15.858-1.908,32.337-4.44,47.761c-1.191,7.252-2.739,14.338-4.56,21.479
			c-0.862,3.38-1.712,6.576-3.12,9.96c-0.529,1.271-1.378,2.874-2.04,4.439c-1.011,2.393-1.605,3.615-3.12,4.681
			c-0.925,0.651-1.257,0.964-2.76,0.6s-2.898-1.286-4.44-1.92c-3.521,14.892-5.158,31.788-9,47.04c-0.543,2.158-1.001,4.497-1.92,6
			c-0.149,0.244-0.795,1.427-1.08,1.561c-0.301,0.141-0.433-0.096-0.84-0.121c-2.244-0.133-3.439-1.215-4.68-2.52
			c-1.12-1.176-2.145-2.717-3-4.08c-1.929-3.072-3.312-6.479-4.44-9.84c-2.541-7.57-4.532-14.926-6.24-22.199
			c-3.734-15.9-5.76-32.688-5.76-51.121c0-18.69,2.089-35.822,4.08-52.92c5.958-51.18,12.02-101.268,18.84-151.919
			c2.256-16.755,4.327-33.517,6.84-50.04c5.022-33.02,10.283-65.943,15.72-98.16c1.349-7.995,3.166-15.836,4.92-23.521
			c1.781-7.805,3.617-15.41,5.64-22.8c4.126-15.073,8.465-29.345,15.84-41.04c1.796-2.849,3.897-5.656,6-8.28
			c10.45-13.039,22.931-24.441,37.44-33.72c5.764-3.687,11.736-7.157,18-10.44c12.376-6.487,26.558-11.401,41.28-15.6
			c14.976-4.271,30.115-8.038,45.6-11.28c7.856-1.645,15.753-3.313,23.88-4.56c8.335-1.279,16.904-1.85,26.16-2.28
			c12.207-0.567,25.064,0.607,35.76,1.92c11.369,1.396,21.4,3.538,31.32,6c9.692,2.406,19.229,5.606,27.72,9.601
			c12.88,6.057,23.738,13.508,31.319,24.72c2.51,3.71,4.443,7.92,6.48,12.24c3.984,8.446,7.782,17.291,11.4,25.92
			c3.693,8.811,7.282,17.702,10.56,26.76c2.888,7.979,5.759,15.903,8.761,24c0.383,1.034,13.23,36.441,18.72,53.76
			c2.72,8.583,5.369,17.302,7.92,26.04c2.563,8.783,5.338,17.504,7.56,26.4c2.257,9.036,4.218,18.357,6.12,27.84
			c1.907,9.502,3.283,19.286,4.92,29.04c2.051,12.217,3.837,24.444,5.64,36.84c0.18,1.234,7.024,41.986,8.881,52.44
			c0.914,5.151,1.878,10.287,2.52,15.48c0.65,5.265,8.041,64.505,9.24,80.88c0.688,9.398,1.8,25.287,1.8,34.32
			c0.001,11.883-0.114,23.972-0.6,35.4c-0.479,11.256-1.155,22.743-3.841,32.159c-0.652,2.291-1.455,4.533-2.279,6.72
			c-1.206,3.199-2.641,6.272-4.561,9c-0.733,1.043-2.085,2.707-3.359,3.36c-1.344,0.688-3.514,1.387-5.28,0.72
			c-3.429-1.293-5.209-4.424-6.96-7.8c-1.758-3.389-2.929-7.152-4.2-10.56C630.643,930.878,627.636,924.175,625.68,916.439z
			 M295.68,401.28c6.517-3.083,13.735-5.188,21.12-7.2c7.439-2.028,15.191-3.766,23.04-5.28c16.12-3.11,32.832-5.491,50.04-6.6
			c9.151-0.59,18.773-0.372,27.24,0.6c17.448,2.004,30.604,6.877,43.2,13.44c6.268,3.266,12.324,6.649,18,10.319
			c5.697,3.685,10.999,7.961,16.08,12.24c10.383,8.746,18.735,19.03,26.4,30.24c3.809,5.571,7.148,11.587,10.56,17.76
			c6.735,12.188,12.483,25.271,18,38.641c4.14,10.032,8.252,20.199,12.12,30.359c1.303,3.422,2.535,6.892,3.84,10.32
			c10.385,27.273,18.425,56.385,27.36,85.92c2.211,7.31,4.199,14.734,6,22.32c1.802,7.594,3.668,15.286,5.28,23.04
			c6.524,31.387,12.844,62.471,17.64,95.64c3.614,25.002,4.984,51.313,5.76,79.2c0.26,9.348-0.108,18.704-0.36,27.72
			c-0.191,6.879,0.351,14.038,0.841,20.399c0.169,2.199,0.063,4.579,0.6,6.48c0.179,0.635,0.624,3.159,0.84,3.96
			c0.114,0.423,0.305,0.809,0.48,1.32c1.82,5.298,3.482,10.898,5.64,15.72c4.515-13.466,6.001-29.359,6-46.32
			c-0.002-35.035-3.362-66.428-7.08-97.68c-1.864-15.67-3.833-31.196-6.12-46.32c-2.32-15.345-4.415-30.288-7.56-44.76
			c-3.119-14.356-6.869-28.291-10.08-42.36c-6.447-28.242-14.657-55.361-22.68-82.08c-7.957-26.5-16.924-52.46-26.881-77.88
			c-4.797-12.249-9.865-24.893-15.359-36.96c-2.764-6.07-5.404-12.104-8.4-17.761c-3.064-5.786-6.29-11.228-9.96-16.319
			c-7.202-9.995-16.148-18.461-26.88-25.44c-5.317-3.458-10.668-6.866-16.439-9.72c-17.531-8.668-38.796-13.921-64.801-13.92
			c-8.863,0-17.204,0.047-25.439,0.72c-8.017,0.655-15.907,1.647-24,2.04c7.825-1.036,15.63-2.008,23.64-2.76
			c16.201-1.522,34.835-1.371,50.399,0.479c7.795,0.927,15.062,2.697,21.601,4.8c6.602,2.123,12.964,4.538,18.96,7.44
			c5.973,2.892,11.748,5.864,17.04,9.36c10.769,7.111,19.649,15.587,27.12,25.8c7.428,10.154,13.045,22.099,18.48,34.319
			c5.47,12.301,10.638,24.995,15.479,37.44c4.955,12.736,9.821,25.562,14.28,38.521c9.107,26.468,17.072,53.163,24.84,80.88
			c3.857,13.762,7.681,27.685,10.92,41.88c3.26,14.282,7.015,28.316,10.08,42.72c3.116,14.645,5.325,29.761,7.56,45.36
			c2.209,15.417,4.222,30.946,6.12,46.68c1.902,15.763,3.722,31.736,5.04,47.88c0.676,8.274,1.264,16.525,1.561,24.84
			c0.599,16.829,0.852,35.38-1.08,50.761c-0.833,6.629-2.561,13.076-4.2,18.959c-0.33,1.184-0.948,2.479-0.72,3.36
			c0.482,1.867,1.522,3.907,2.279,6c0.748,2.065,1.471,4.171,2.4,5.88c3.251-13.967,5.63-28.833,6.72-44.4
			c1.135-16.201,0.514-33.324-0.24-49.92c-0.721-15.874-2.786-31.274-4.319-46.799c-3.099-31.373-6.92-61.09-12.12-90.24
			c-2.579-14.455-5.211-28.804-8.04-43.08c-5.675-28.632-11.278-57-19.319-83.04c-3.959-12.816-8.188-25.781-12.24-38.88
			c-4.021-12.997-7.861-26.133-12.121-39c-4.244-12.826-8.498-25.618-13.079-38.04c-4.63-12.556-9.466-24.831-14.88-36.36
			c-2.796-5.952-5.654-11.429-9-16.56c-3.379-5.181-6.963-9.983-11.041-14.521c-4.144-4.612-8.206-8.912-12.959-12.6
			c-4.749-3.684-10.148-6.618-16.08-9.601c-5.63-2.83-11.435-5.472-17.76-7.8c-12.446-4.581-26.861-7.449-42.48-8.64
			c-7.893-0.603-16.006-0.443-24-1.681c16.964-0.612,32.959,1.09,47.04,3.841c7.179,1.402,13.853,3.222,20.159,5.52
			c6.379,2.323,12.315,4.941,18,7.8c5.826,2.93,11.354,5.889,16.08,9.601c4.754,3.732,8.902,8.145,12.961,12.84
			c4.004,4.634,7.766,9.344,11.16,14.52c3.387,5.165,6.326,10.741,9.119,16.681c5.436,11.558,10.256,23.993,14.881,36.6
			c4.586,12.505,9.057,25.277,13.319,38.16c4.29,12.963,8.153,26.252,12.12,39.36c1.99,6.574,4.076,13.061,6.12,19.56
			c2.063,6.561,4.274,13.077,6.24,19.56c7.986,26.349,13.564,54.957,19.319,83.641c2.882,14.36,5.29,28.864,8.04,43.44
			c5.507,29.182,9.048,59.307,12.24,90.72c1.593,15.673,3.574,30.994,4.44,47.041c0.445,8.254,0.721,16.674,0.72,24.959
			c-0.001,8.572,0.002,17.057-0.6,25.201c-1.189,16.076-4.032,31.244-7.2,45.119c0.51,0.553,0.776,1.406,1.2,2.16
			c0.395,0.704,0.854,1.623,1.56,1.68c3.207-13.279,6.043-27.332,7.08-42.359c0.53-7.686,1.2-15.568,1.2-23.52
			c0-8.057,0.12-16.184,0.12-24.48c-0.001-7.973-0.495-15.93-1.08-23.641c-0.581-7.649-1.375-15.133-2.16-22.56
			c-2.399-22.694-4.824-44.58-8.16-66.12c-1.099-7.093-2.392-14.148-3.48-21.24c-2.211-14.413-4.273-28.851-6.119-43.44
			c-1.381-10.913-2.692-21.978-5.16-31.92c-0.823-3.314-1.842-6.526-2.521-9.84c-0.743-3.634-0.982-7.263-1.56-10.8
			c-1.717-10.509-4.678-20.19-7.32-29.88c-1.745-6.4-3.438-12.997-5.88-18.84c-1.251-2.993-2.558-5.86-3.479-8.88
			c-0.985-3.226-1.633-6.477-2.521-9.84c-1.696-6.424-3.565-12.824-5.521-19.2c-5.854-19.101-11.887-37.562-18.359-55.92
			c-4.369-12.39-8.08-24.903-12.48-37.08c-4.326-11.976-9.379-23.509-15.359-34.08c-6.02-10.64-13.254-19.907-22.32-27.24
			c-2.295-1.856-4.581-3.72-7.08-5.279c-5.027-3.14-10.348-6.381-16.08-8.641c-2.899-1.143-5.689-2.597-8.64-3.84
			c-11.892-5.011-25.569-6.673-38.761-10.8c15.58,2.985,31.184,5.777,43.561,12c1.461,0.734,2.947,1.19,4.439,1.8
			c2.855,1.165,5.662,2.627,8.281,4.08c5.356,2.974,10.433,6.055,15,9.84c4.549,3.771,8.71,7.825,12.359,12.36
			c3.686,4.58,6.821,9.535,9.96,14.88c6.122,10.424,11.247,21.952,15.601,33.96c4.417,12.187,8.126,24.768,12.359,37.2
			c8.359,24.549,17.16,49.219,24,75.12c0.868,3.287,1.654,6.523,2.641,9.72c0.943,3.064,2.056,6.018,3.359,9
			c2.652,6.067,4.203,12.573,6,18.84c2.753,9.599,5.6,19.484,7.32,29.76c0.585,3.496,1.013,7.065,1.68,10.68
			c0.617,3.347,1.526,6.598,2.4,9.96c2.583,9.941,3.992,21.069,5.399,31.8c1.915,14.6,3.899,29.013,6.12,43.44
			c2.205,14.323,4.574,28.649,6.48,43.08c1.916,14.508,3.489,29.35,5.16,44.4c0.822,7.416,1.568,14.924,2.159,22.561
			c1.775,22.914,1.903,49.041,0.24,72c-1.1,15.178-3.488,29.374-6.84,42.719c1.656-1.202,2.586-3.162,3.479-5.039
			c2.88-6.049,5.607-12.691,6.641-20.365c1.398-10.396,1.915-21.47,2.375-33c0.232-5.835,0.249-12.742,0.25-18.625
			c0-11.919-0.655-17.5-1.625-34.689c-0.922-16.336-5.5-54.218-6.375-64.44c-0.448-5.239-8.959-56.862-9.665-62.04
			c-0.174-1.276-0.494-2.661-0.48-3.96c0.008-0.673-0.88-6.951-1.319-9.24c-0.091-0.471-6.377-39.237-9.48-57.48
			c-1.575-9.259-3.096-18.375-5.04-27.24c-1.931-8.806-4.29-17.363-6.6-25.8c-4.612-16.848-9.945-33.291-15.12-49.561
			c-5.216-16.396-24.732-72-28.561-83.399c-0.395-1.177-0.647-2.33-1.08-3.48c-5.463-14.541-11.681-28.568-18.119-42.24
			c-2.006-4.257-4.055-8.21-6.721-11.76c-2.661-3.545-5.494-6.73-8.879-9.72c-6.453-5.697-14.363-10.337-22.921-14.16
			c-8.546-3.818-18.073-6.921-27.84-9.24c-19.965-4.74-41.765-8.442-66.479-7.319c-5.918,0.269-11.582,0.679-17.041,1.439
			c-5.517,0.77-10.77,1.803-15.84,2.76c-10.381,1.959-20.143,4.163-30.48,6.601c-19.93,4.699-39.156,9.706-56.76,17.399
			c-8.555,3.739-16.629,7.988-24.36,12.721c-7.664,4.69-14.994,9.646-21.6,15.479c-13.153,11.613-25.608,24.931-32.52,41.76
			c-3.571,8.697-6.379,18.296-9,28.08c-2.598,9.702-4.982,19.767-7.2,29.88c-4.479,20.43-7.815,41.932-11.16,63
			c-2.526,15.909-5.005,32.115-7.44,48.12c-2.457,16.147-4.787,32.5-6.84,48.84c-4.169,33.175-8.139,65.757-12.12,99.24
			c-1.32,11.102-2.374,22.309-3.6,33.48c-1.864,16.978-3.626,33.256-5.04,50.64c-0.465,5.727-1.08,11.605-1.08,17.52
			c0,6.167-0.098,12.263,0.24,18.24c1.005,17.793,3.827,32.805,7.92,47.76c1.258,4.596,2.622,9.439,4.32,14.28
			c1.396,3.979,3.4,7.573,5.64,10.56c0.616,0.822,0.624,1.129,1.08,0.841c0.62-0.393,0.281-1.182,0.12-1.56
			c-0.247-0.58-0.788-1.142-0.96-1.44c-1.869-3.237-3.463-6.763-4.56-9.96c-2.772-8.084-4.757-16.6-6.692-24.918
			c-0.561-2.41-1.089-4.826-1.579-7.252c-1.423-7.051-2.446-14.188-2.818-21.375c-0.362-7-0.075-14.012,0.792-20.967
			c0.828-6.648,2.153-13.218,3.469-19.783c1.285-6.411,2.506-12.833,3.645-19.271c0.136-0.771,0.271-1.541,0.407-2.311
			c-0.927,7.427-1.937,14.836-3.195,22.215c-1.232,7.233-2.592,14.451-3.282,21.763c-0.732,7.763-0.706,15.572-0.02,23.337
			c0.689,7.807,2.009,15.549,3.766,23.182c1.738,7.549,3.918,14.981,6.167,22.391c0.695,2.291,1.448,4.52,2.417,6.715
			c0.776,1.756,1.638,3.474,2.563,5.155c0.226,0.408,0.401,1.128,0.96,1.2c0.204-0.936,0.45-2.168,0.6-2.881
			c0.139-0.657-0.253-0.911-0.72-1.799c-2.132-4.055-3.882-8.617-5.28-12.841c-1.67-5.048-2.875-11.224-3.96-16.8
			c-1.101-5.662-2.249-11.576-3.12-17.641c-0.88-6.127-1.68-12.535-1.68-19.079c0-7.258,0.275-13.565,1.2-19.44
			c0.923-5.859,2.37-11.168,4.32-16.439c2.29-6.188,4.221-12.349,5.15-18.898c0.274-1.937,0.497-3.881,0.696-5.826
			c0.261-2.554,0.462-5.114,0.634-7.676c0.049-0.727-0.068-1.852,0.48-2.16c-0.363,12.697-2.171,24.2-5.52,34.32
			c-1.741,5.26-3.195,10.308-4.08,15.96c-0.896,5.725-1.2,11.818-1.2,18.84c0,12.585,2.305,24.38,4.44,35.64
			c2.132,11.242,4.836,21.871,9.24,30.961c0.005-0.938,0.76-2.541,0.48-3.721c-0.081-0.341-0.437-0.676-0.6-1.08
			c-0.54-1.34-0.878-2.745-1.32-4.08c-4.162-12.574-6.55-26.465-7.56-42.24c-0.532-8.311-1.26-18.248-0.36-27.359
			c0.631-6.391,1.996-12.244,3.72-17.52c0.488-1.492,1.464-4.781,2.52-4.681c1.451,0.138,1.2,3.796,1.2,5.64
			c0,5.301-0.309,8.415-1.08,12.601c-1.34,7.272,0.513,8.847,1.2,9.96c3.151-13.719,3-29.939,3-46.2
			c0-15.64,0.749-31.542,1.92-45.96c0.032-0.398-0.236-1.051,0.24-1.32c-0.639,15.792-0.959,32.642-0.96,49.44
			c0,16.833,0.836,33.561-3.12,47.04c0.592,1.527,1.591,3.24,2.28,4.561c0.22,0.421,0.315,1.196,0.84,1.199
			c0.854-7.326,1.326-14.805,1.92-22.439c0.6-7.703,0.461-15.57,0.84-23.521c0.188-3.936,0.12-8.005,0.12-12
			c0-4.007,0.24-8.004,0.24-12c0-8.018,0.009-16.122,0.36-24.12c0.356-8.102-0.262-16.215,0.12-24.24
			c0.189-3.979,0.173-7.932,0.36-11.88c0.178-3.77,0.649-7.54,0.96-11.28c0.646-7.762,0.654-15.596,1.08-23.28
			c0.369-6.658,1.098-13.355,2.04-19.32c0.132-0.837,0.112-1.998,0.72-2.4c-0.784,7.265-1.436,14.665-1.8,22.32
			c-0.367,7.71-0.198,15.643-0.96,23.52c-0.748,7.726-1.2,15.433-1.2,23.28c0,12.12-0.115,24.516-0.24,36.48
			c-0.126,12.153-0.48,24.385-0.48,36.24c0,15.974-1.136,31.89-3.48,46.08c0.698,1.151,1.737,2.519,2.52,3.6
			c0.218,0.302,0.597,1.271,0.84,0.841c2.548-16.157,2.64-33.883,2.64-51.721c0-22.561,0.287-45.169,0.72-67.08
			c0.088-4.453,0.293-8.928,0.36-13.32c0.403-26.458,3.891-51.256,6.36-75.36c0.852-8.321,1.551-16.48,2.76-24.36
			c1.199-7.817,2.731-15.384,4.32-22.92c6.319-29.971,13.133-59.848,22.08-86.88c4.444-13.427,11.498-25.014,17.88-36.6
			c-1.049-2.191-2.571-3.909-3.84-5.881c1.305,2.027,3.158,3.615,4.731,5.42c1.536,1.763,2.893,3.695,4.228,5.612
			c3.827,5.496,7.246,11.309,10.528,17.144c4.955,8.536,9.214,17.519,12.134,26.961c0.802,2.593,1.494,5.218,2.098,7.863
			c6.011,26.332,10.602,54.685,12,85.2c0.241,5.244,0.112,10.515,0.36,15.84c0.246,5.293-0.014,10.629,0.24,15.96
			c0.255,5.357-0.105,10.722,0.12,16.08c0.438,10.416-0.128,21.198-0.48,31.68c-0.352,10.478-0.991,20.696-2.28,30.12
			c-2.53,18.5-6.576,36.396-10.32,54.36c-3.747,17.979-7.175,36.004-10.68,54.12c-2.189,11.315-4.332,22.862-6.24,34.2
			c-0.188,1.121-0.314,2.377-0.6,3.48c-0.278,1.071-0.777,2.022-0.96,3.119c-0.78,4.685-1.319,9.424-2.04,14.16
			c-2.836,18.645-5.487,37.547-8.04,56.76c-2.53,19.041-4.986,37.938-8.04,56.641c-3.049,18.671-5.887,37.258-9,55.8
			c-3.105,18.495-6.218,36.974-9.36,55.44c-4.747,27.903-8.645,56.043-12.72,84.479c-1.351,9.428-2.779,18.866-4.08,28.32
			c-7.843,56.987-16.521,113.156-24.72,169.68c1.794,3.656,2.857,6.828,4.68,9.84c0.308,0.509,0.325,0.746,0.72,1.08
			c0.279,0.236,0.681,0.477,1.08,0.72c2.285,1.393,4.928,2.699,7.2,3.84c6.3,3.166,13.335,6.82,21.24,7.681
			c1.2-12.202,2.481-24.31,3.96-36.36c4.422-36.037,9.095-71.36,15.24-105.72c4.118-23.025,7.738-45.874,12.48-68.16
			c2.383-11.198,4.511-22.341,6.96-33.36c7.356-33.104,15.34-65.076,25.56-95.52c3.394-10.109,6.689-20.162,10.2-30.12
			c3.525-9.997,7.016-19.967,10.56-29.88c14.136-39.535,30.425-77.358,47.16-114.24c0.041-0.427-0.426-0.805-0.72-1.08
			c-2.483-2.322-5.311-4.437-7.8-6.6c-0.027,0.094-0.003,0.236-0.12,0.24c-8.425,14.695-15.764,30.146-23.28,45.72
			c-7.521,15.581-14.481,31.71-20.88,48.24c-6.385,16.493-12.938,33.177-18.72,50.399c-5.615,16.726-10.77,34.108-15.36,51.601
			c-0.14,0.531-0.155,1.153-0.6,1.56c9.002-36.531,20.458-71.006,33.6-104.4c6.364-16.172,13.216-32.69,20.64-48.359
			c1.826-3.854,3.738-7.711,5.64-11.641c1.84-3.801,3.635-7.74,5.64-11.64c3.327-6.472,7.012-13.29,10.56-19.68
			c0.283-0.51,1.538-2.536,1.56-2.761c0.071-0.71-1.348-1.568-2.04-2.159c-0.899-0.769-1.783-1.423-2.16-2.04
			c1.151,0.613,2.167,1.391,3.24,2.16c0.811,0.58,1.86,1.004,2.52,1.56c0.246,0.207,0.444,0.476,0.72,0.72
			c1.943,1.723,4.122,3.18,6.12,4.801c4.026,3.266,7.862,6.689,11.64,10.199c7.596,7.057,14.162,15.021,20.88,22.92
			c2.487,2.926,4.929,6.062,7.2,9.121c0.785,1.056,1.807,1.943,2.52,3c8.827,13.071,17.388,26.549,25.44,40.319
			c5.435,9.294,10.644,18.589,15.12,28.56c13.58,30.25,25.111,62.571,35.88,95.521c1.802,5.513,3.437,11.079,5.16,16.68
			c5.114,16.622,10.473,33.309,15.36,50.28c9.814,34.081,19.428,68.228,27.359,103.92c2.651,11.929,5.358,24.119,7.68,36.12
			c2.293,11.849,4.617,24.688,5.761,38.04c0.286,3.34,0.671,6.645,1.08,9.84c0.423,3.302,0.612,6.626,1.44,9.48
			c0.201,0.696,0.326,0.836,0.719,1.199c0.6,0.553,0.91,1.541,1.32,2.16c2.479,3.732,5.794,7.344,9.84,8.641
			c0.007,0.125,0.154,0.094,0.121-0.121c-1.119-16.126-2.155-31.84-4.08-47.159c-1.902-15.129-4.423-29.881-6.961-44.4
			c-2.562-14.661-4.963-29.133-7.92-43.319c-8.857-42.502-19.439-83.377-31.08-122.881c-7.758-26.327-16.955-51.777-25.08-77.399
			c9.02,25.27,18.146,50.778,25.92,77.16c11.678,39.629,22.857,80.66,31.681,123c2.975,14.276,5.389,28.813,8.04,43.56
			c5.278,29.355,9.464,59.793,11.16,92.04c0,0.08,0,0.16,0,0.24c3.176,1.343,7.016,2.024,11.76,1.8c0-0.12,0-0.24,0-0.359
			c-0.137-1.064-0.213-2.188-0.359-3.24c-1.791-0.156-4.527,0.096-6-0.721c2.022-0.177,4.002-0.396,5.76-0.84
			c0.094-0.026,0.139-0.1,0.119-0.24c-0.258-1.635-0.449-3.771-0.6-5.279c-0.057-0.571,0.084-1.299-0.359-1.68
			c-0.129,0.005-0.305-0.057-0.121-0.121c0.166,0.006,0.264-0.056,0.36-0.119c-1.979-19.313-3.29-38.511-5.28-57.48
			c-1.99-18.986-3.762-37.84-6.479-56.279c-1.354-9.194-2.632-18.283-3.96-27.36c-2.697-18.425-5.254-36.594-8.88-54
			c-5.421-26.013-11.435-51.328-17.761-76.44c-8.438-33.497-17.164-66.479-27.72-97.92c-5.263-15.675-10.759-31.003-16.68-45.96
			c7.06,14.345,12.129,29.804,17.521,45.36c5.412,15.619,10.229,31.696,14.879,48c9.293,32.576,17.57,66.25,25.681,100.199
			c8.186,34.266,13.522,70.209,18.72,107.16c5.198,36.957,8.413,75.164,11.88,114c1.505-0.301,3.589-0.982,5.28-1.8
			c1.448-0.699,3.138-1.47,4.2-2.399c0.755-0.662,0.479-2.134,0.479-3.601c0-3.116,0.1-5.91-0.119-8.88
			c-0.17-0.375-0.517,0.172-0.601,0.24c-1.812,1.461-3.761,3.131-5.76,4.199c0.728-0.984,1.856-2.096,3.12-3.359
			c0.78-0.781,2.947-2.474,3.24-3.48c0.041-0.145-0.023-0.33,0-0.479c0.215-1.459,0-3.128,0-4.681
			c-0.001-4.664-0.25-9.101-0.24-13.799c-0.517,0.166-1.02,2.018-1.68,2.039c0.469-1.008,1-1.936,1.319-3
			c0.382-1.273,0.308-2.758,0.24-4.199c-0.392-8.398-0.669-17.27-1.08-25.32c-1.712-33.551-5.219-65.572-9-96.721
			c-2.569-21.166-5.314-41.845-8.521-61.92c-1.594-9.98-3.708-19.756-5.88-29.399c-2.181-9.684-4.438-19.209-6.6-28.681
			c-4.372-19.164-8.79-38.264-13.44-57c-2.346-9.45-4.563-18.85-7.08-28.079c-2.521-9.249-5.064-18.351-7.92-27.36
			c-8.453-26.674-17.633-53.104-27.359-78.359c-3.276-8.506-6.771-16.816-9.721-25.32c3.752,7.976,6.959,16.217,10.2,24.479
			c3.272,8.34,6.392,16.825,9.479,25.32c6.168,16.96,12.074,34.176,17.881,51.72c11.611,35.085,19.439,72.72,28.439,110.641
			c2.211,9.314,4.312,18.7,6.48,28.199c2.152,9.434,4.313,18.96,6.12,28.681c1.839,9.897,3.263,19.989,4.56,30.239
			c1.28,10.121,2.826,20.356,4.08,30.721c4.966,41.036,9.955,83.666,11.04,128.04c1.887-3.907,4.442-8.832,6-13.32
			c0.587-1.69,0.7-2.698,0.601-4.92c-0.643-14.136-1.477-28.655-2.641-42c-2.586-29.649-5.877-57.258-9.72-85.44
			c-1.917-14.059-3.94-27.974-6-41.64c-2.074-13.758-4.005-27.481-6.479-41.04c-2.459-13.465-4.931-26.9-7.44-40.2
			c-2.53-13.406-4.967-26.661-7.921-39.6c-2.961-12.976-6.314-25.602-9.479-38.16c-3.198-12.691-6.286-25.278-9.72-37.8
			c-3.404-12.412-6.998-24.776-10.439-37.2c-3.42-12.344-7.203-24.62-10.441-37.08c-6.506-25.043-13.746-49.979-18.6-76.56
			c-2.461-13.484-3.963-27.344-6.119-41.521c-2.11-13.871-3.793-28.081-4.92-42.72c-0.566-7.348-0.957-14.811-1.44-22.32
			c-0.485-7.53-0.877-15.134-0.841-22.8c0.783,7.394,0.931,14.809,1.44,22.08c0.52,7.412,1.075,14.711,1.56,21.96
			c0.971,14.484,2.794,28.564,4.801,42.36c2.026,13.935,3.874,27.564,6.359,40.8c4.955,26.381,11.719,51.212,18.601,75.72
			c3.457,12.312,6.814,24.619,10.319,36.84c7.044,24.555,13.901,49.106,20.16,74.16c4.695,18.794,9.578,37.721,13.681,57
			c1.396,6.56,2.519,13.235,3.72,19.92c2.367,13.165,5.035,26.384,7.439,39.72c2.416,13.396,4.423,26.919,6.601,40.561
			c4.349,27.242,7.86,54.883,11.28,83.04c3.417,28.142,6.234,56.881,7.8,86.521c0.414-4.822,1.423-9.503,1.08-14.4
			c-0.343-4.881-0.728-9.843-0.96-14.76c-0.945-20.01-2.092-40.193-3.721-59.4c-0.816-9.627-1.954-19.096-3.239-28.32
			c-3.917-28.103-7.142-55.803-11.4-83.16c-4.245-27.277-8.516-54.665-13.319-81.24c-3.201-17.706-6.908-35.148-10.801-52.319
			c-7.777-34.305-17.361-67.423-25.439-100.8c-5.088-21.021-10.178-42.562-15.24-63.48c-1.021-4.219-2.199-8.436-3.12-12.72
			c-1.87-8.708-3.341-17.673-4.681-26.88c-1.33-9.15-2.728-18.374-3.84-27.72c-1.107-9.311-2.363-18.704-3.359-28.2
			c-1.996-19.039-3.868-38.577-4.561-58.56c-0.172-4.992-0.377-10.062-0.6-15.12c-0.107-2.452-0.277-4.86-0.24-7.32
			c0.041-2.616,0-5.27,0-7.92c0.002-20.878,1.148-41.137,2.4-60.72c0.633-9.895,1.262-19.548,3-28.56
			c1.664-8.628,3.894-17.127,6.12-25.44c2.21-8.253,4.821-16.338,7.319-24.239c2.525-7.982,5.168-15.884,8.16-23.4
			c2.624-6.591,5.531-13.032,8.4-19.2c0.378-0.812,1.037-1.663,1.08-2.64c-0.849-0.472-1.309-1.331-2.4-1.561
			c-8.582,20.268-17.309,41.429-24.119,63.48c-2.324,7.522-4.589,15.163-6.121,23.16c-1.584,8.272-2.543,16.816-3.72,25.439
			c-1.169,8.571-2.212,17.29-3.12,26.16c-0.906,8.845-1.68,18.04-1.68,27.48c0,9.429,0.509,19.024,0.12,28.68
			c-0.842-4.484-0.644-9.13-0.841-13.8c-0.393-9.321-0.926-19.172-0.479-28.56c0.221-4.633,0.796-9.125,1.2-13.56
			c0.812-8.906,1.793-17.742,3-26.4c1.217-8.729,2.048-17.429,3.6-25.8c1.471-7.932,3.878-15.662,6.24-23.16
			c7.094-22.511,15.271-43.806,24.12-64.08c-2.613-0.946-5.3-1.82-7.8-2.88c6.71,0.791,10.808,2.495,11.16,2.641
			c12.007,4.974,16.423,9.724,19.92,14.279c2.602,4.15,4.248,9.134,6.119,14.28c1.725,4.739,4.581,12.075,6.301,16.83
			c5.335,14.744,10.591,25.212,15.75,39.25c1.729,4.707,3.501,9.663,5.311,14.36c3.6,9.346,7.067,18.904,10.68,28.439
			c6.961,18.377,13.01,38.93,18.24,60c4.801,19.342,16.354,80.7,19.319,108.12c0.762,7.042,2.264,13.871,3.12,20.64
			c0.905,7.151,1.339,14.473,1.8,22.081c0.438,7.214,1.119,14.77,1.2,22.56c0.164,15.8,0.598,31.052,0.6,47.04
			c0.001,3.617,0.06,7.597,0.601,11.279c0.381,2.596,0.954,6.664,2.279,8.16c0.236,0.266,0.507,0.503,0.841,0.721
			c0.768,0.499,1.588-0.642,2.04-1.2c1.17-1.446,1.812-2.469,2.76-3.96c0.539-0.85,1.232-1.969,1.08-2.521
			c-0.948-3.423-2.251-8.614-3.24-12.6c-0.364-1.468-0.966-3.071-0.84-4.08c0.175-1.408,1.877-2.022,3-1.44
			c0.958,0.496,1.175,2.34,1.56,3.601c0.443,1.452,0.922,2.815,1.32,3.84c-0.84-8.685-0.586-17.438-0.36-26.16
			c0.229-8.839,0.249-17.66-0.12-26.399c-0.369-8.754-0.434-17.479-0.96-26.041c-0.525-8.551-1.152-16.932-1.92-25.199
			c-1.496-16.119-3.999-32.033-6.6-47.521c-2.62-15.6-5.455-30.862-8.521-45.6c-4.701-22.609-9.168-44.676-15.24-65.76
			c-6.023-20.919-12.482-41.92-18.959-62.28c-4.322-13.585-9.105-26.837-14.16-39.96c-10.039-26.062-20.564-51.97-33.6-74.521
			c-1.59-2.749-3.445-5.441-5.281-8.159c-5.459-8.086-11.228-16.149-17.879-22.801c-4.528-4.527-9.262-8.757-14.16-12.84
			c-2.488-2.073-4.922-4.129-7.561-6c-2.635-1.867-5.425-3.54-8.279-5.28c-11.236-6.848-23.252-12.998-37.08-16.92
			c-13.69-3.882-31.528-5.161-49.32-3.84c-16.653,1.237-32.481,3.728-47.64,6.48c-7.559,1.372-14.963,3.002-22.08,4.92
			c-7.129,1.921-13.934,4.274-20.76,6.359C294.426,401.678,295.554,401.34,295.68,401.28z M497.88,514.56
			c-2.885,7.318-5.405,14.901-7.92,22.681c-2.475,7.652-5.037,15.463-7.201,23.399c-2.207,8.095-4.404,16.29-6.119,24.601
			c-1.766,8.553-2.561,17.883-3.24,27.359c-0.682,9.498-1.238,19.314-1.68,29.041c-0.448,9.868-0.741,19.726-1.08,29.52
			c-0.346,10,0.617,19.901,1.08,29.64c0.921,19.367,2.192,38.47,4.08,57.12c1.896,18.746,3.887,37.035,6.6,54.72
			c1.365,8.903,2.83,17.584,4.439,26.16c1.588,8.448,3.691,16.743,5.761,24.96c8.327,33.064,16.057,65.371,24.601,97.92
			c4.229,16.113,8.695,32.279,12.6,48.721c7.877,33.179,14.61,67.145,20.16,102.479c2.76,17.576,5.722,35.158,8.399,52.92
			c2.679,17.767,5.059,35.728,7.44,53.88c2.353,17.936,4.986,36.13,6.6,54.721c1.641,18.908,2.1,38.194,3.6,57.72
			c0.088-7.304,0.58-14.531,0.721-21.601c0.047-2.385-0.305-4.7-0.48-7.08c-2.045-27.791-5.72-54.125-8.76-80.879
			c-3.058-26.911-6.519-53.518-10.2-79.44c-6.239-43.938-11.345-88.351-19.319-130.08c-6.344-33.192-15.279-65.099-22.681-96.96
			c-3.747-16.129-6.995-32.593-10.44-49.32c-5.135-24.934-9.592-50.25-12.479-77.16c-1.435-13.364-3.106-27.049-4.2-40.56
			c-1.135-14.024-1.916-28.148-2.52-42.48c-0.793-18.836-1.812-38.76-1.2-58.32c0.604-19.299,1.921-38.216,4.319-55.44
			c2.355-16.906,5.917-33.728,11.16-48.6c3.83-10.864,8.245-21.812,12.48-32.4c1.131-2.828,2.627-6.335,3.721-9.359
			c0.252-0.698,0.438-0.713,0.239-1.2c-0.108-0.267-0.719-0.791-1.08-1.2c-0.296-0.335-0.766-1.179-1.079-0.72
			c-1.842,4.364-3.608,8.847-5.761,13.199c-2.075,4.198-4.286,8.677-5.76,13.2c-4.583,14.073-9.195,29.1-12.841,44.16
			c-1.264,5.224-2.121,10.566-3,16.08c-1.724,10.824-3.596,21.913-4.56,33.48c-0.505,6.071-0.479,12.282-0.479,18.479
			c0,6.205-0.36,12.422-0.36,18.6c0,6.166-0.077,12.387-0.36,18.6c-0.285,6.267,0.055,12.605-0.24,18.84
			c-0.299,6.348,0.121,12.614,0.121,18.84c0,6.049,0.652,12.101,1.08,18c0.869,12.017,1.582,23.877,2.039,35.76
			c-0.889-12.126-1.531-24.097-2.399-36.24c-0.429-5.991-1.2-12.018-1.2-18.12c0-6.29-0.12-12.639-0.12-19.2
			c0.001-12.551,0.411-25.384,0.479-38.16c0.035-6.283,0.361-12.676,0.361-18.96c-0.002-6.362-0.039-12.639,0.6-18.72
			c1.209-11.524,3.121-22.808,4.8-33.84c0.842-5.535,1.786-10.904,3.12-16.2c2.652-10.53,5.465-20.091,8.64-30
			c1.58-4.932,2.829-10.028,4.681-14.64c1.75-4.363,4.117-8.748,6.119-13.2c0.906-2.017,1.92-4.553,2.881-6.84
			c0.421-1.005,1.928-3.366,1.56-4.2c-0.331-0.749-1.522-0.93-1.92-1.8c-0.722,0.709-0.935,1.741-1.32,2.64
			c-0.394,0.92-0.925,1.839-1.319,2.76c-2.428,5.658-4.579,11.427-6.961,17.16c-3.154,7.595-6.053,15.338-8.76,23.4
			c-6.775,20.176-11.85,41.897-13.8,66.6c-0.388,4.911-0.84,9.952-1.08,15c-0.484,10.178-0.75,20.598-1.08,31.08
			c-0.331,10.507,0.251,21.071,0.36,31.56c0.082,7.878,0.561,15.76,0.84,23.28c0.073,1.978,0.244,4.111,0,5.88
			c-0.082,0.593-0.126,1.362-0.48,1.56c-0.402-0.285-0.473-0.881-0.6-1.32c-0.482-1.662-0.479-3.623-0.6-5.52
			c-1.134-17.829-2.089-36.353-1.801-55.2c0.159-10.355,0.738-20.88,1.32-31.2c0.583-10.327,1.07-20.582,2.52-30
			c2.889-18.762,7.111-36.334,12.48-52.561c5.414-16.359,12.605-31.127,19.561-45.479c0.012-0.312-0.361-0.619-0.601-0.84
			c-0.948-0.874-2.122-1.604-3-2.4C503.947,499.833,500.818,507.105,497.88,514.56z M492.48,735.24
			c-0.392-11.324-0.936-22.867-1.439-34.32c-0.508-11.547-1.242-23.302-0.84-34.92c0.098-2.862,0.443-5.684,0.359-8.52
			c-0.084-2.862-0.33-5.744-0.359-8.64c-0.062-5.75,0.209-11.475,0.479-17.16c0.546-11.49,1.231-22.52,2.521-33.121
			c0.637-5.245,1.621-10.408,2.399-15.479c0.806-5.25,1.448-10.368,2.521-15.36c4.244-19.762,11.068-37.123,16.92-54.6
			c-0.194-0.335-0.237,0.113-0.24,0.12c-0.315,0.596-0.484,1.222-0.721,1.8c-4.994,12.262-9.886,24.403-13.92,37.56
			c-2.152,7.021-4.252,14.208-5.76,21.721c-3.047,15.186-5.459,31.454-6.72,48.239c-0.644,8.573-0.892,17.342-1.2,26.28
			c-0.613,17.749,0.434,36.009,0.721,54c0.139,8.777,0.713,17.589,1.079,26.28c1.106,26.29,3.356,51.658,6.841,75.6
			c1.174,8.071,2.279,16.01,3.6,23.88c3.924,23.383,8.969,46.301,13.8,68.641c3.231,14.942,6.775,29.639,10.44,44.4
			c7.269,29.278,14.697,58.875,19.8,90.119c7.718,47.261,14.093,95.636,20.64,144.24c4.37,32.439,7.695,65.272,11.76,98.16
			c-1.08-17.05-2.646-33.889-4.08-50.641c-1.411-16.494-3.785-32.801-5.64-49.08c-1.868-16.396-3.799-32.798-5.521-49.199
			c-6.061-57.758-14.262-113.954-25.199-166.44c-0.394-1.888-0.895-3.754-1.2-5.64c-0.146-0.898-0.247-1.763-0.479-2.641
			c-0.238-0.893-0.525-1.826-0.721-2.76c-3.955-18.892-7.957-37.849-11.64-56.88c-5.911-30.543-12.005-61.124-16.921-92.52
			c-2.444-15.616-5.414-31.516-6.479-48.24c-0.542-8.521-0.944-17.345-1.079-26.28c-0.203-13.299-0.841-26.975-0.841-40.32
			c0-13.514-0.601-26.858-0.601-40.44c0.002-17.874-0.783-37.087,1.801-52.92c2.475-15.158,6.723-29.777,10.68-44.04
			c2.001-7.21,3.978-14.337,6-21.36c1.789-6.212,3.471-12.654,5.76-18.24c0.24-0.584,0.976-1.604,0.24-2.279
			c-0.477-0.208-0.725,0.878-0.84,1.2c-3.096,8.671-5.973,17.254-8.88,26.04c-3.05,9.216-6.436,18.533-8.88,28.319
			c-2.518,10.082-4.122,20.571-5.76,31.44c-2.452,16.267-3.252,34.03-4.08,51.84c-0.281,6.026,0.516,12.054,0.24,18.12
			c-0.552,12.125,0.031,24.268,0.479,36.36c0.444,11.965,0.989,24.008,1.319,35.88c0.332,11.909,1.014,23.625,2.16,34.92
			C493.28,757.714,492.872,746.561,492.48,735.24z M247.44,522.84c-0.875,1.226-1.591,2.833-2.4,4.32
			c-0.797,1.465-1.613,2.965-2.4,4.439c-3.161,5.924-6.5,11.812-9.12,18c-1.357,3.206-2.454,6.548-3.6,9.96
			c-4.573,13.621-8.592,27.942-12,42.36c-5.195,21.977-10.729,43.853-14.28,67.2c-1.203,7.908-1.933,16.103-2.76,24.48
			c-1.625,16.45-3.801,32.544-5.04,49.2c-1.247,16.767-1.296,34.464-1.8,52.56c-0.721,25.89,0.006,54.646-1.08,80.4
			c-0.318,7.533-0.789,15.318-2.04,21.721c-0.196,1.003-0.651,2.24-0.6,2.879c0.062,0.762,0.832,1.541,1.32,2.281
			c0.385,0.583,0.777,1.111,1.08,1.56c-0.028-0.042,0.029,0.673,0.24,0.239c1.221-8.121,1.803-16.551,2.04-25.08
			c0.485-17.445,1.292-35.115,1.56-52.68c0.137-8.992,0.12-18.037,0.12-27c0-18.266,0.522-35.5,2.16-52.08
			c1.621-16.414,4.004-32.174,6.6-47.64c2.589-15.424,5.083-30.983,7.92-46.32c1.421-7.685,3.211-15.258,4.2-22.92
			c0.995-7.71,2.875-15.177,4.56-22.56c3.386-14.836,7.293-28.891,12-42.24c2.322-6.586,5.34-12.749,8.28-18.84
			c2.978-6.17,6.128-12.166,9.12-18.12c-1.086-2.273-2.46-4.26-3.72-6.36C247.623,522.403,247.513,522.737,247.44,522.84z
			 M252.12,529.8c-0.1-0.282-0.217,0.199-0.24,0.24c-1.604,2.808-2.848,5.995-4.32,9.12c-4.264,9.054-9.169,18.426-12.48,28.2
			c-4.554,13.445-8.743,27.584-12,42.239c-1.657,7.455-3.354,14.989-4.32,22.68c-0.482,3.841-1.305,7.685-2.04,11.52
			c-0.727,3.793-1.454,7.602-2.16,11.4c-5.679,30.545-11.273,61.236-14.52,93.84c-1.637,16.435-2.159,33.731-2.16,52.08
			c0,13.337-0.173,26.99-0.72,39.96c-0.562,13.327-0.785,26.083-1.32,39.359c-0.302,7.492-0.621,15.162-1.8,21.84
			c-0.18,1.02-0.637,2.057-0.6,2.881c0.045,0.992,0.659,2.044,0.96,3c0.306,0.971,0.444,2.012,0.84,2.88
			c0.351,0.768,0.917,1.433,1.44,2.04c0.563,0.654,1.083,1.41,1.92,1.68c0.12,0,0.143,0.098,0.24,0.12
			c1.412-0.929,2.411-1.974,3.12-3.479c0.726-1.542,1.255-3.248,1.92-4.801c1.365-3.188,2.347-6.762,3.24-10.199
			c3.727-14.344,5.349-30.43,6.6-46.92c0.63-8.311,1.413-16.769,1.8-24.961c0.783-16.575,2.034-33.531,3.36-50.16
			c2.66-33.349,5.79-65.655,11.52-95.64c2.837-14.848,6.689-29.076,10.68-42.96c3.917-13.623,8.307-27.454,12.96-40.56
			c1.772-4.991,3.541-9.984,5.347-14.964c1.776-4.896,3.766-9.712,5.724-14.537c0.513-1.265,1.017-2.53,1.333-3.861
			c0.424-1.79,0.438-3.645-0.164-5.397c-19.29,32.116-29.421,74.359-38.4,117.24c-1.489,7.11-3.123,14.2-4.56,21.36
			c-1.481,7.382-2.559,14.877-3.6,22.44c-1.066,7.747-1.501,15.694-2.16,23.76c-1.954,23.905-3.874,48.631-5.4,72.6
			c-0.512,8.033-0.98,15.96-1.92,24c-1.406,12.029-0.519,25.235-1.44,37.561c-0.613,8.211-1.742,15.606-3.72,22.319
			c-0.747,2.532-1.363,5.192-2.28,7.44c-0.282,0.692-0.616,1.963-1.32,1.8c0.381-3.406,1.784-6.571,2.76-9.96
			c2.916-10.125,3.84-22.332,3.84-35.16c0-8.564,0.175-16.814,1.08-24.96c0.896-8.068,1.498-16.06,1.92-24.12
			c1.27-24.233,3.202-48.997,5.16-72.96c0.654-7.997,1.156-16.031,2.28-23.76c2.151-14.792,5.081-29.452,8.16-43.92
			c3.067-14.416,6.072-28.733,9.6-42.48c3.48-13.56,7.806-27.198,12.36-39.72c4.027-11.074,9.057-21.284,14.4-31.08
			c0.682-1.25,2.307-3.628,2.28-4.32c-0.013-0.344-0.545-1.116-0.84-1.68c-0.956-1.831-1.885-3.543-2.76-5.16
			c-6.158,11.203-12.47,22.823-17.16,35.761c-4.691,12.941-8.701,26.718-11.76,41.16c-0.754,3.56-1.679,7.092-2.52,10.68
			c-2.545,10.86-4.927,21.59-7.2,32.52c-3.074,14.784-5.515,29.909-7.44,45.6c-1.887,15.383-3.889,31.399-5.28,47.64
			c-0.702,8.201-0.99,16.481-1.56,24.84c-1.136,16.65-2.285,32.831-2.88,50.04c-0.596,17.248-0.842,34.539-2.76,50.28
			c-0.829,6.8-1.624,13.907-3.48,19.68c-0.251,0.78-0.523,1.812-1.08,2.28c0.414-3.676,1.214-7.345,1.8-11.16
			c1.745-11.371,3.042-23.676,3.48-36.359c0.587-16.981,0.911-34.448,2.04-51c0.567-8.317,1.181-16.598,1.68-24.84
			c0.508-8.389,0.854-16.719,1.56-24.96c1.395-16.285,3.427-32.25,5.4-47.64c1.017-7.931,1.826-15.795,3.12-23.4
			c3.834-22.541,9.277-44.091,14.04-65.52c3.204-14.419,7.029-28.296,11.76-41.28c2.33-6.396,5.248-12.47,8.16-18.36
			c2.941-5.948,6.339-11.561,9.48-17.159c-1.055-2.026-2.133-4.138-3.12-6c-0.355-0.671-0.657-1.404-1.2-1.921
			c-5.693,11.921-12.271,23.658-16.92,36.841c-2.343,6.643-4.248,13.602-6.24,20.64c-1.98,6.994-3.696,14.238-5.52,21.479
			c-0.906,3.595-1.928,7.225-2.52,10.92c-0.608,3.793-1.244,7.517-2.16,11.28c-1.785,7.331-3.288,14.785-4.56,22.32
			c-2.584,15.311-4.742,31.021-7.08,46.8c-3.439,23.213-6.683,47.427-8.28,72.36c-0.545,8.512-1.081,17.114-1.08,25.92
			c0,8.755-0.155,17.714-0.48,26.399c-0.654,17.484-1.048,34.932-2.4,51.48c-0.59,7.221-1.327,14.443-3,20.52
			c-0.259,0.939-0.385,1.959-0.96,2.521c4.62-23.046,4.417-49.21,5.52-75.36c0.185-4.382,0.24-8.811,0.24-13.199
			c0-13.38,0.336-26.476,1.32-39.121c0.657-8.444,1.229-16.751,2.04-24.96c1.621-16.414,3.736-32.341,6.12-47.88
			c3.632-23.67,6.472-47.375,11.64-69.24c0.439-1.857,0.828-3.665,1.2-5.52c0.381-1.902,0.626-3.833,0.96-5.76
			c0.647-3.743,1.616-7.42,2.52-11.04c1.804-7.224,3.617-14.38,5.52-21.36c1.935-7.098,3.892-14.089,6.24-20.76
			c4.648-13.205,11.543-24.772,17.4-36.6C254.836,534.844,253.545,532.255,252.12,529.8z M178.92,860.641
			c-1.116,3.122-1.919,6.78-2.52,10.439c-1.24,7.552-1.477,15.863-1.08,24.6c0.187,4.104,0.39,8.251,0.72,12.24
			c1.268,15.297,4.324,29.506,8.16,42c0.108,0.352,0.051,0.973,0.48,1.2c0.354-2.114,0.694-5.05,1.08-7.32
			c0.137-0.806,0.564-1.789,0.48-2.399c-0.046-0.339-0.468-0.73-0.72-1.2c-0.264-0.493-0.451-1.046-0.6-1.44
			c-1.13-2.992-2.339-6.112-3.12-9c-1.125-4.158-1.823-8.825-2.52-13.56c-1.214-8.249-1.995-17.271-1.56-26.4
			c0.061-1.285,0.23-2.741,0.12-3.96c-0.084-0.93-0.905-1.938-0.84-3.24c0.078-1.551,1.09-2.973,1.558-4.439
			c0.569-1.785,0.754-3.643,0.954-5.495c0.336-3.108,0.527-6.227,0.64-9.351c0.062-1.699,0.235-3.5,0.088-5.194
			c-0.006-0.073-0.018-0.142-0.12-0.12C179.903,858.98,179.225,859.789,178.92,860.641z M186.72,939.12
			c0.14-1.224,0.348-2.462,0.6-3.841c0.225-1.23,0.807-2.654,0.72-3.84c-0.076-1.038-0.868-2.491-1.32-3.84
			c-1.313-3.912-2.389-8.174-3.24-12.24c-0.976-4.661-1.005-9.063-1.2-14.279c-0.062-1.674,0.181-3.655-0.12-5.04
			c-0.096-0.442-0.625-1.254-0.96-1.92c-0.931-1.851-2.223-4.518-2.76-6.12C178.537,907.703,181.393,924.647,186.72,939.12z
			 M188.76,928.08c0.07-1.016,0.385-2.094,0.6-3.24c0.197-1.047,0.651-2.291,0.6-3.24c-0.03-0.562-0.488-1.385-0.72-2.16
			c-1.388-4.639-2.442-9.928-3.12-14.879c-0.124-0.906-0.012-2.016-0.24-2.761c-0.188-0.614-1.021-1.464-1.56-2.28
			c-0.663-1.004-1.292-2.059-1.68-2.52C182.371,909.67,185.566,918.874,188.76,928.08z M190.68,918.24
			c-0.081-1.068,0.364-2.034,0.632-3.043c0.642-2.416-0.547-5.203-1.644-7.331c-0.748-1.451-1.679-2.794-2.588-4.146
			C188.064,908.775,189.262,913.617,190.68,918.24z M347.88,954.72c-1.174,2.097-2.098,4.498-3.12,6.841
			c-7.121,16.316-14.34,33.039-21.12,49.439c-7.925,19.172-15.626,38.432-22.56,57.96c-3.513,9.895-7.063,19.724-10.56,29.64
			c-3.516,9.97-6.723,20.096-10.08,30.24c-13.364,40.379-23.524,83.914-32.52,128.641c-13.517,67.204-23.966,137.262-32.04,209.76
			c0.026,0.094,0.101,0.14,0.24,0.119c5.848,0.641,13.179,0.42,18.72-0.359c-0.066-6.057,0.8-12.01,1.32-18
			c1.579-18.188,3.16-36.257,4.68-54c2.016-23.533,6.081-46.19,9.96-68.28c1.948-11.093,3.918-22.186,5.88-33.239
			c1.975-11.125,3.707-22.281,5.88-33.24c12.956-65.358,30.937-125.411,49.8-185.04c6.156-19.458,12.437-39.514,19.8-58.44
			c3.563-9.16,7.537-18.463,11.4-27.72c3.533-8.466,7.15-17.396,10.8-25.92c0.286-0.668,0.82-1.374,0.84-1.681
			c0.04-0.601-0.762-1.177-1.44-1.799c-2.042-1.875-3.712-3.602-5.64-5.16C347.927,954.162,347.93,954.631,347.88,954.72z
			 M356.28,962.641c-1.167,2.071-1.881,4.506-2.88,6.84c-2.931,6.846-5.807,13.873-8.64,20.64
			c-5.872,14.024-11.687,27.647-16.68,41.88c-5.103,14.545-9.681,29.539-14.52,44.16c-0.815,2.461-1.454,4.98-2.28,7.439
			c-0.813,2.424-1.644,4.865-2.4,7.32c-4.624,15.027-9.259,29.942-13.68,45c-8.864,30.188-17.18,60.885-24.36,92.76
			c-2.396,10.635-4.936,21.324-6.96,32.16c-2.045,10.95-3.852,22.016-5.88,33.12c-2.008,10.996-3.921,22.091-5.88,33.24
			c-3.884,22.108-7.69,44.695-9.96,68.159c-1.729,17.871-3.056,36.184-4.68,54c-0.494,5.414-0.949,11.568-1.68,16.561
			c-0.027,0.184-0.317,0.822,0.12,0.96c3.756-0.524,6.628-1.932,9.72-3.12c0.305-0.152,0.241-0.212,0.24-0.48
			c-0.026-5.998,0.532-11.994,0.84-18c0.933-18.186,1.796-36.338,3.24-53.999c1.917-23.458,6.214-44.86,10.08-66.36
			c3.877-21.561,8.398-42.729,12.84-63.6c4.473-21.019,9.345-41.675,14.4-62.04c10.153-40.902,21.331-80.274,34.68-118.2
			c4.985-14.163,10.063-28.287,15-42.24c8.348-23.594,16.516-46.852,26.4-69.24c-1.776-2.424-4.518-4.922-6.84-7.199
			C356.327,962.082,356.33,962.551,356.28,962.641z M353.4,998.279c-6.833,18.531-13.443,37.227-20.28,55.801
			c-10.279,27.926-19.936,56.549-28.44,85.8c-5.723,19.683-11.01,39.694-16.08,60.12c-10.116,40.75-19.003,81.828-27.24,125.04
			c-2.008,10.536-4.011,21.296-5.76,32.28c-1.75,10.985-3.389,22.213-4.32,33.72c-1.901,23.509-2.706,47.521-4.32,71.88
			c0,0.08,0,0.16,0,0.24c0.983-0.317,1.595-0.795,2.64-1.32c0.838-0.422,2.249-0.742,2.52-1.561c0.292-0.88,0.042-2.934,0.12-4.56
			c0.503-10.565,1.192-21.156,2.04-30.84c1.028-11.729,3.042-22.289,4.08-33.479c0.548-5.907,0.708-11.769,1.2-17.521
			c1.489-17.39,4.166-33.693,6.96-49.44c3.687-20.772,8.162-41.835,12.36-62.76c2.101-10.471,4.141-20.922,6.48-31.08
			c2.354-10.224,4.922-20.207,7.68-29.88c5.589-19.597,11.301-38.916,17.16-57.96c11.794-38.338,25.1-75.211,38.4-111.84
			c6.643-18.295,13.667-36.363,20.76-54.359c-0.039-0.574-0.592-0.998-0.96-1.44c-1.243-1.492-2.564-3.003-3.84-4.32
			C360.666,979.775,356.831,988.977,353.4,998.279z M365.16,991.68c-19.162,49.672-37.182,100.039-53.76,152.16
			c-6.051,19.024-11.434,38.42-17.04,57.96c-1.388,4.839-2.776,9.743-4.08,14.64c-3.951,14.846-6.969,30.389-10.08,46.08
			c-4.065,20.504-8.603,41.348-12.36,62.521c-1.896,10.687-3.88,21.367-5.16,32.28c-0.657,5.602-1.308,11.224-1.8,16.92
			c-0.498,5.762-0.645,11.613-1.2,17.52c-0.519,5.514-1.361,11.002-2.16,16.561c-2.388,16.613-3.281,34.25-4.56,51.72
			c0.905-0.396,1.869-0.903,2.64-1.44c0.52-0.361,0.595-0.354,0.84-0.84c0.191-0.379,0.052-0.803,0.48-1.32
			c1.272,0.709,2.389,0.046,3.24-0.6c2.032-22.734,3.8-45.206,6.12-67.32c2.333-22.237,5.084-44.109,7.92-65.52
			c1.44-10.88,3.028-21.503,4.8-31.92c1.757-10.328,4.009-20.41,6.36-30.36c4.704-19.902,9.848-39.263,14.88-58.56
			c5.073-19.454,10.393-38.589,15.96-57.48c5.564-18.883,11.647-37.454,17.52-55.92c11.718-36.844,25.956-72.176,39.96-107.04
			c-0.104-0.694-0.808-1.295-1.32-1.92c-0.548-0.669-1.115-1.37-1.68-1.92C368.814,982.356,366.938,987.071,365.16,991.68z
			 M374.64,983.16c-1.025,1.987-1.793,4.276-2.64,6.48c-0.836,2.174-1.648,4.427-2.52,6.6c-8.785,21.883-16.981,43.976-25.08,66.24
			c-3.291,9.048-6.189,18.273-9.24,27.359c-12.3,36.633-23.143,74.544-33.36,112.92c-5.082,19.088-10.321,38.401-14.88,58.2
			c-2.274,9.878-4.713,19.896-6.36,30.12c-8.435,52.377-14.31,107.191-19.08,163.8c1.945-0.735,3.927-2.473,6-3.479
			c-0.209-5.713-0.039-11.775,0.24-17.76c0.266-5.707,0.688-11.445,1.08-16.921c2.417-33.745,5.958-66.286,10.8-96.96
			c6.559-41.549,15.797-80.486,25.8-117.84c12.642-47.208,27.039-92.953,42-137.52c2.969-8.843,6.483-17.383,9.96-25.92
			c6.947-17.055,14.408-33.619,21.96-49.92c-1.279-2.081-2.91-3.811-4.44-5.641C374.648,982.67,374.703,983.037,374.64,983.16z
			 M577.44,1357.561c0.622-4.146,0.988-9.155,0.601-13.32C577.878,1348.695,576.716,1352.957,577.44,1357.561z M573.96,1368.48
			c0.287,3.151,0.189,6.689,0.6,9.72c0.135-3.048,1.371-5.956,1.439-9.12c0.045-2.064-0.293-4.209-0.359-6.48
			C575.22,1364.7,574.658,1366.658,573.96,1368.48z M567.36,1381.8c-0.626,1.093-1.618,2.139-1.8,3
			c-0.311,1.468,0.077,3.249,0.12,4.8c0.138,4.969,0.229,9.559,0.239,14.641c3.588-3.46,4.899-9.48,6.36-15.48
			c0.261-1.068,0.77-2.177,0.841-3.119c0.072-0.971-0.172-2.119-0.24-3.24c-0.205-3.344-0.281-7.362-0.601-10.2
			C570.994,1375.09,569.056,1378.841,567.36,1381.8z M578.28,1382.76c0.2-2.16,0.2-5.159,0-7.32
			C578.042,1377.722,578.414,1380.207,578.28,1382.76z M575.16,1389.48c-0.23,2.205,0.236,4.762,0.36,7.199
			c0.126,2.484,0.135,4.969,0.479,7.2c0.643-1.833,0.816-3.843,0.721-6.12c-0.179-4.242-0.026-9.112-0.36-13.199
			C576.294,1386.164,575.347,1387.686,575.16,1389.48z M579.839,1390.08c-0.067-0.734,0.145-2.381-0.119-2.52
			C579.789,1388.294,579.576,1389.941,579.839,1390.08z M568.201,1404.12c-0.719,0.942-1.961,2.021-2.16,2.88
			c-0.195,0.836,0,2.035,0,3c-0.001,3.271,0,6.14,0,9.359c2.491-1.925,4.477-4.959,6.479-7.799c0.728-1.032,1.768-2.04,1.92-3
			c0.146-0.922-0.171-2.305-0.239-3.48c-0.211-3.589-0.342-7.905-0.721-10.8C572.311,1398.016,570.406,1401.227,568.201,1404.12z
			 M579.36,1412.88c0.188-0.372,0.333-0.787,0.72-0.96c-0.09-4.029-0.039-8.2-0.24-12.12
			C579.27,1403.67,579.376,1408.856,579.36,1412.88z M576.24,1411.561c-0.479,2.211,0.422,5.636,0.24,7.92
			c0.434-0.727,0.793-1.527,1.2-2.28c-0.356-2.244-0.116-5.085-0.601-7.2C577.007,1410.566,576.387,1410.88,576.24,1411.561z
			 M566.041,1421.279c0.312,2.248-0.168,4.703,0,7.201c2.237-1.213,4.831-3.037,6.959-5.041c0.609-0.572,1.793-1.547,1.92-2.16
			c0.193-0.924-0.172-2.771-0.239-4.319c-0.052-1.16,0.127-2.69-0.12-3.24C572.137,1416.657,569.226,1419.105,566.041,1421.279z
			 M554.28,1426.32c0.292,2.269,0.468,4.652,0.72,6.959c3.562-0.678,6.291-2.188,9.121-3.6c0.186-2.134,0.209-5.069,0-7.199
			C561.375,1424.295,557.859,1425.339,554.28,1426.32z M566.041,1431.12c0.079,1.28-0.16,2.879,0.119,3.96
			c3.478-2.242,6.096-5.345,8.4-8.76c0.006-0.207-0.093-0.309-0.24-0.36C571.785,1427.904,569.139,1429.739,566.041,1431.12z
			 M572.76,1433.88c1.854,0.465,3.495,1.145,5.399,1.56c-0.182-2.137,0.093-4.658,0-6.6
			C576.527,1430.688,574.67,1432.311,572.76,1433.88z M564,1432.08c-2.811,1.068-5.562,2.196-8.879,2.76
			c0.311,1.25,0.163,2.956,0.6,4.08c3.35-0.291,5.604-1.676,8.4-2.52C564.041,1435,564.279,1433.28,564,1432.08z M535.44,1442.641
			c1.534,2.825,3.318,5.521,5.64,7.56c1.945,1.707,4.479,2.996,6.961,4.319c7.496,4,15.775,7.275,22.92,11.28
			c8.611,4.828,16.182,10.473,23.16,16.56c0.992,0.867,1.783,1.938,3,2.521c-1.41-2.042-3.099-4.593-4.44-6.72
			c-0.478-0.756-0.786-1.74-1.32-2.28c-0.405-0.411-1.13-0.669-1.8-1.08c-1.8-1.102-3.73-2.437-5.4-3.479
			c-7.464-4.666-15.525-8.257-23.16-12.36c-2.594-1.395-5.389-2.408-7.92-3.84c-2.526-1.429-5.004-2.928-7.319-4.56
			c-4.552-3.209-9.054-6.885-10.681-12.961c-1.329-0.916-2.916-2.07-3.959-3.24c-0.303-0.339-0.729-1.356-0.961-0.959
			c0.826,4.917,1.567,11.103,2.16,16.439c0.1,0.891,0.343,1.972,0.24,2.52c-0.121,0.644-1.227,1.494-1.439,1.92
			c-0.057,0.112-0.047,0.243-0.121,0.361c-1.086,1.723-1.904,4.578-3.119,6.239c-0.127,0.174-0.394,0.095-0.48,0.24
			c-0.113,0.189-0.012,0.379-0.12,0.6c-0.739,1.517-1.188,3.453-1.68,5.4c-0.965,3.815-1.684,7.824-1.92,12.239
			c-0.13,2.436-0.272,5.164,0,7.201c0.073,0.546,0.411,1.095,0.479,1.68c0.064,0.546-0.033,1.188,0,1.8
			c0.178,3.261,0.434,6.296,0.721,9.479c0.114,1.275,0.115,2.676,0.359,3.84c0.158,0.749,0.643,1.678,0.961,2.521
			c2.254,5.982,5.531,11.177,7.799,16.8c1.42,3.52,2.389,7.146,3.121,10.92c0.75,3.874,1.27,7.891,2.64,11.4
			c0.952,2.441,2.718,4.65,4.44,6.72c5.176,6.219,10.723,11.619,18.959,14.521c11.191,3.941,26.209,4.055,40.08,2.16
			c2.508-9.117,1.764-20.778,0.12-29.641c-0.595-3.205-1.397-5.973-2.28-8.64c-2.707-8.182-6.26-15.594-11.16-21.479
			c-8.237-9.898-18.656-17.708-28.68-25.801c-8.062-6.51-17.109-12.196-22.68-21c6.916,7.705,15.908,13.264,24.24,19.68
			c6.172,4.754,12.277,9.851,17.88,15c1.917,1.763,3.728,3.617,5.64,5.4c7.518,7.013,12.832,16.135,16.68,27.24
			c3.539,10.211,5.273,25.539,2.641,38.64c3.251-0.988,6.649-2.667,9.12-4.56c1.514-1.16,2.283-2.066,3.12-3.6
			c0.667-1.225,1.778-3.414,1.92-4.921c0.156-1.667-0.153-3.818-0.36-5.64c-0.2-1.764-0.595-3.507-0.96-5.04
			c-1.623-6.804-3.388-12.505-5.64-18.36c-5.665-14.73-13.99-26.552-24.72-35.64c-8.771-7.429-18.676-13.646-28.32-19.92
			c-9.74-6.336-19.787-12.562-25.92-22.32c4.027,3.894,7.713,7.866,12.119,11.28c8.841,6.85,19.082,12.223,28.44,18.359
			c4.702,3.084,9.265,6.431,13.56,9.961c8.73,7.174,15.848,15.48,21.36,25.56c4.191,7.662,7.217,16.179,9.84,25.319
			c0.87,3.03,1.455,6.251,2.28,9.48c0.203-1.854,0.385-3.761,0.48-5.64c0.073-1.456-0.174-3.023-0.12-4.32
			c0.02-0.487,0.273-0.874,0.239-1.319c-0.063-0.85-0.551-1.973-0.84-3c-0.846-3.016-1.989-6.152-3-8.761
			c-3.023-7.81-5.879-14.787-9.72-21.479c-0.93-1.62-1.881-3.27-2.88-4.92c-0.949-1.568-1.943-3.504-3-4.801
			c-1.059-1.297-2.545-2.331-3.84-3.6c-3.802-3.723-7.906-7.297-12-10.561c-5.82-4.639-11.705-8.497-18-12
			c-6.362-3.539-13.518-6.535-19.92-10.08c-5.565-3.08-10.562-7.213-13.2-13.079c-0.358-0.798-0.96-1.651-0.96-2.64
			C535.162,1441.752,535.244,1442.279,535.44,1442.641z M571.56,1434.84c-1.389,1.652-3.304,2.776-5.04,4.08
			c4.349,1.451,8.276,3.323,12.96,4.439c-0.364-1.915-0.857-3.703-1.08-5.76C575.703,1437.098,573.587,1436.012,571.56,1434.84z
			 M545.16,1448.4c5.844,4.273,12.377,7.535,18.961,10.92c8.316,4.275,16.926,8.062,24.239,12.959
			c0.442,0.297,0.815,0.882,1.44,0.841c-0.971-1.35-1.678-2.962-2.4-4.56c-12.68-5.636-25.146-12.302-36.359-19.44
			c-3.746-2.385-7.439-5.015-9.601-9c-1.712-0.328-3.185-0.896-4.56-1.56C538.436,1442.936,541.688,1445.861,545.16,1448.4z
			 M565.32,1439.4c-2.022,0.857-4.068,1.691-6.24,2.399c5.982,3.205,12.827,5.681,19.561,8.04c0.938,0.328,1.848,0.879,2.88,0.84
			c-0.587-1.532-0.906-3.334-1.44-4.92C574.683,1444.117,569.174,1442.586,565.32,1439.4z M554.88,1450.08
			c9.148,5.365,19.097,10.197,28.8,14.76c0.873,0.41,1.644,1.061,2.64,1.08c-0.756-1.684-1.324-3.555-1.92-5.4
			c-6.07-2.413-12.461-4.841-18.48-7.68c-6.741-3.18-13.975-6.535-18.479-11.64c-1.675-0.126-3.087-0.513-4.68-0.72
			C545.722,1444.649,550.283,1447.384,554.88,1450.08z M583.56,1458.12c-0.379-1.86-1.041-3.438-1.439-5.28
			c-5.797-1.919-11.564-3.992-16.801-6.359c-1.785-0.809-3.643-1.559-5.279-2.521c-1.041-0.612-1.938-1.794-3.121-2.04
			c-1.205-0.25-2.616,0.054-3.84,0c-1.398-0.062-3.18-0.402-4.08-0.24C558.658,1449.023,571.648,1453.032,583.56,1458.12z
			 M529.8,1454.16c-0.088-0.458,0.53-0.899,0-1.08C529.916,1453.484,529.433,1453.899,529.8,1454.16z M231.84,1470.24
			c1.211,5.7,3.548,10.44,5.28,15.6c0.571,1.702,1.385,3.921,1.32,5.76c-0.217,6.133-7.967,5.402-14.16,5.28
			c-10.985-0.216-21.733-0.981-31.2,1.2c-5.881,1.354-11.171,3.489-16.56,5.52c-10.491,3.954-21.438,8.258-31.8,12.24
			c-15.976,6.141-31.625,12.759-50.16,15.84c11.958-3.024,23.76-6.322,34.68-10.56c16.146-6.265,32.188-13.173,48.48-19.32
			c5.479-2.067,10.931-4.265,17.28-5.399c3.061-0.548,6.49-0.951,10.2-1.08c7.663-0.267,14.471,0.24,22.2,0.24
			c3.565-0.001,8.104,0.171,9.12-2.281c0.643-1.549-0.097-3.699-0.72-5.399c-1.62-4.425-3.72-7.272-4.92-11.76
			c-0.241-0.901-0.611-2.064-0.6-2.761c0.016-0.966,0.675-1.764,0.36-3c-2.454,0.107-5.006,0.115-7.32,0.36
			c0.076,0.634,0.484,1.155,0.72,1.8c0.799,2.182,1.318,4.09,2.04,6.24c0.97,2.889,2.613,5.535,2.88,8.28
			c0.202,2.073-0.528,4.441-1.92,4.92c-8.895,0.463-18.051-0.177-26.52,0.479c-6.329,0.491-11.686,2.146-16.8,3.721
			c-1.714,0.527-3.302,1.415-5.04,1.56c5.943-2.967,13.055-5.401,21.48-6.239c6.366-0.634,13.471-0.445,20.16-0.48
			c2.171-0.012,4.417,0.034,6.48-0.48c1.304-2.717,0.011-5.273-0.96-7.439c-0.548-1.223-1.129-2.406-1.56-3.721
			c-0.891-2.721-1.789-5.334-2.04-8.52c-1.554-0.051-3.202,0.367-4.56,0.12c0.193,2.523,0.596,4.565,1.44,6.84
			c0.615,1.657,2.207,4.352,1.8,6.479c-0.349,1.83-2.493,2.633-4.68,2.881c-2.212,0.251-4.925,0.137-6.72-0.6
			c2.957-0.671,9.398,0.449,9.96-2.4c0.27-1.368-0.935-3.17-1.56-4.44c-1.294-2.629-2.159-4.974-1.8-8.76
			c-8.859-0.151-15.103-3.145-21-6c-0.728-0.353-1.448-0.884-2.28-0.96c0.636,3.227,1.752,9.688-0.36,12.359
			c-1.132,1.433-3.713,1.785-5.28,0.48c-0.846-2.4,0.481-4.275,0.72-6.6c-1.451,0.908-2.908,2.852-4.32,4.199
			c-0.207,0.554-0.165,1.355-0.36,1.92c-4.649,3.247-9.942,5.692-15.24,8.16c-16.005,7.457-33.711,13.319-50.28,20.16
			c-10.986,4.536-21.045,9.41-32.16,14.76c-2.525,1.216-5.236,2.576-8.04,3.721c-2.784,1.137-5.664,2.007-8.4,3.359
			c-2.335,1.155-5.179,2.429-7.44,4.32c-0.961,0.804-1.929,1.652-3.12,2.76c-0.837,0.779-2.515,2.778-2.52,3.36
			c-0.005,0.613,0.759,1.346,1.08,1.8c1.312,1.855,2.633,3.384,4.56,4.32c3.032,1.475,8.06,1.898,13.08,2.04
			c15.743,0.442,29.828-0.984,42.6-2.88c8.802-1.307,17.427-2.878,25.92-4.44c8.437-1.552,16.824-3.092,24.96-5.399
			c3.877-1.1,8.177-1.795,12.6-2.521c4.286-0.702,8.7-1.488,13.08-2.04c9.2-1.158,18.527-2.226,28.2-1.92
			c4.673,0.147,9.279,1.405,13.92,1.2c2.36-0.104,4.664-0.343,6.96-0.601c2.388-0.267,4.771-0.271,7.08-0.6
			c6.517-0.928,12.337-2.875,16.56-6.12c0.739-0.567,1.424-1.187,2.16-1.68c1.44-0.964,2.548-1.576,3.72-2.64
			c1.391-1.264,2.402-2.8,3.24-4.44c1.165-2.281,1.942-4.781,1.92-8.04c-0.026-3.82-0.832-7.117-2.04-10.439
			c-0.544-1.497-1.242-2.937-1.8-4.44c-1.652-4.452-4.11-8.921-6.84-12c-0.956-1.078-2.048-2.13-3-3.24
			c-0.916-1.068-2.223-2.372-2.76-3.601c-0.243-0.555-0.213-1.393-0.48-1.92c-0.425-0.84-1.51-1.228-2.16-2.159
			c-0.741-1.063-1.108-1.999-1.44-3.36c-0.964,0.396-1.697,1.023-2.64,1.439c0.113,0.73,0.794,1.123,1.2,1.681
			c0.43,0.591,0.765,1.307,1.2,1.92c5.167,7.28,11.492,13.981,15.48,22.32c0.692,1.446,1.486,3.009,1.92,4.44
			c1.412,4.656,0.729,10.542-1.32,14.039c-1.865,3.185-5.304,5.312-8.88,7.2c-3.75,1.979-7.191,3.97-11.4,4.8
			c-2.721,0.537-5.856,0.668-8.88,0.84c-3.043,0.174-6.171,0.34-9.24,0.48c-12.659,0.58-26.054,0.106-37.92,1.2
			c-5.744,0.529-11.186,2.054-16.32,3.239c-10.707,2.475-20.763,5.301-30.84,8.16c-5.109,1.45-10.319,2.824-15.6,3.961
			c-5.449,1.172-10.954,2.324-16.56,2.76c14.1-2.428,27.095-6.261,39.84-9.961c9.344-2.712,19.671-5.331,29.76-7.56
			c3.547-0.783,6.993-1.633,10.56-1.92c7.678-0.618,15.904-0.374,24.12-0.72c8.111-0.342,16.239-0.484,23.88-1.08
			c4.046-0.315,7.62-0.646,10.56-1.801c2.838-1.113,5.557-2.649,8.28-4.199c2.721-1.549,5.198-3.104,6.84-5.641
			c1.548-2.391,2.34-6.486,1.92-10.56c-0.287-2.776-1.502-4.844-2.52-6.96c-4.704-9.773-12.506-16.781-17.64-25.8
			c-0.769,0.591-1.754,0.966-2.64,1.44c2.434,4.534,5.409,8.576,8.52,12.719c1.512,2.014,3.25,3.84,4.8,5.761
			c3.474,4.306,7.525,10.472,5.52,18.601c-0.947,3.837-3.51,6.979-6.72,8.879c-3.281,1.943-7.426,2.971-11.88,3.84
			c-4.168,0.814-8.98,1.604-13.92,1.801c-5.108,0.203-10.447-0.018-15.48-0.24c-10.248-0.453-20.995-0.451-29.76,1.08
			c-9.011,1.574-17.07,4.035-24.96,6.48c-15.65,4.85-32.18,9.904-49.2,13.56c-12.517,2.688-26.432,5.293-41.16,5.88
			c-4.88,0.194-9.648,0.057-12.12-3.12c3.474,1.96,7.9,2.378,12.48,2.16c4.559-0.218,9.353-0.785,13.44-1.319
			c26.434-3.458,48.956-9.537,71.4-16.801c7.395-2.393,14.675-4.811,22.68-6.72c8.016-1.912,16.521-2.758,26.64-2.761
			c9.232-0.002,19.348,1.041,28.68,0.24c4.488-0.385,8.535-1.15,12.72-2.039c4.222-0.898,8.076-2.004,10.68-4.08
			c3.253-2.594,5.196-6.791,4.8-11.881c-0.39-5-2.712-8.384-5.16-11.52c-2.426-3.107-5.296-5.855-7.56-9.12
			c-1.75-2.524-3.252-5.356-4.68-7.92c-0.498-0.894-0.74-1.935-1.56-2.64c-2.201,0.719-3.94,1.898-6.36,2.399
			c2.029,4.321,3.858,8.75,6.96,12.96c1.369,1.858,3.058,3.57,4.32,5.641c1.208,1.98,2.569,4.599,3,7.08
			c1.232,7.089-5.691,10.6-10.92,11.879c-3.657,0.896-8.468,0.707-13.08,0.48c-8.261-0.405-18.185-1.078-26.64-0.48
			c-12.748,0.903-24.135,3.874-34.08,7.32c-17.068,5.916-34.472,11.797-51.96,17.04c-10.633,3.188-21.802,5.813-33.72,7.681
			c-4.031,0.631-8.153,1.267-12.24,1.439c32.696-4.383,59.88-14.537,87.72-23.88c6.74-2.263,13.57-4.987,21-6.84
			c7.339-1.83,15.242-3.569,23.88-4.08c8.765-0.519,18.222,0.31,26.88,0.479c4.548,0.09,9.063,0.359,12.84-0.84
			c4.464-1.417,9.875-4.1,8.52-10.199c-0.528-2.377-2-4.551-3.24-6.48c-1.292-2.01-2.813-3.803-4.2-5.641
			c-3.125-4.14-4.722-8.605-6.72-12.959c-1.294,0.065-2.295,0.424-3.6,0.479c1.062,4.066,2.478,7.892,4.56,11.88
			c0.917,1.758,2.051,3.586,2.88,5.52c0.848,1.977,1.85,4.291,1.92,6.48c0.09,2.791-2.178,5.072-4.2,6
			c-2.873,1.318-6.913,1.439-10.8,1.44c-11.817,0.001-25.452-0.661-35.76,0.84c-7.25,1.056-13.693,2.991-19.44,5.16
			c-6.106,2.304-11.633,4.874-17.76,6.84c2.737-1.66,5.812-2.911,8.88-4.2c9.321-3.915,18.461-7.65,30.24-9.24
			c7.402-0.998,16.492-0.838,25.44-0.84c7.397-0.002,20.036,1.265,21.48-4.68c0.588-2.418-0.742-4.97-1.56-6.84
			c-1.473-3.37-3.23-5.475-4.56-8.4c-0.931-2.047-1.664-4.174-2.28-6.359c-0.298-1.059-0.781-2.223-0.48-3.36
			C235.259,1470.004,233.017,1470.348,231.84,1470.24z M527.88,1516.561c0.869,1.514,1.895,2.807,2.88,3.719
			c-1.468-2.852-2.754-5.886-4.32-8.639C526.667,1513.744,527.13,1515.253,527.88,1516.561z"/>
	</g>
</g>
</svg>
